<svg width="301" height="197" viewBox="0 0 301 197" fill="none" xmlns="http://www.w3.org/2000/svg">
    <g filter="url(#filter0_b_0_920)">
    <rect x="0.443359" y="0.164062" width="300.351" height="195.951" rx="11.9128" fill="#8807F7"/>
    </g>
    <path d="M282.157 0.164062H12.353C5.77549 0.164062 0.443359 5.4962 0.443359 12.0737V185.113C0.443359 186.39 1.86091 187.156 2.92912 186.457L283.037 3.11409C284.372 2.23994 283.753 0.164062 282.157 0.164062Z" fill="#820CE8"/>
    <path d="M220.797 81.623H185.951V173.32H220.797V81.623Z" fill="#8807F7"/>
    <path opacity="0.5" d="M220.904 81.623H194.92V173.32H220.904V81.623Z" fill="black"/>
    <path d="M266.329 112.885H231.482V173.314H266.329V112.885Z" fill="#8807F7"/>
    <path opacity="0.3" d="M266.318 112.743H240.334V173.32H266.318V112.743Z" fill="black"/>
    <path d="M175.047 97.9744H140.201V173.314H175.047V97.9744Z" fill="#8807F7"/>
    <path opacity="0.4" d="M175.06 97.79H149.076V173.315H175.06V97.79Z" fill="black"/>
    <path d="M153.764 173.414C153.717 174.538 157.269 175.599 161.681 175.789C166.094 175.979 169.741 175.219 169.789 174.095C169.836 172.971 166.284 171.915 161.871 171.725C157.459 171.535 153.812 172.295 153.764 173.414Z" fill="#8807F7"/>
    <path d="M153.85 171.377L153.764 173.407L169.805 174.088L169.891 172.058L153.85 171.377Z" fill="#8807F7"/>
    <path d="M153.858 171.382C153.81 172.506 157.363 173.567 161.775 173.757C166.188 173.947 169.835 173.187 169.882 172.063C169.93 170.939 166.378 169.883 161.965 169.693C157.553 169.503 153.905 170.263 153.858 171.382Z" fill="#8807F7"/>
    <path opacity="0.4" d="M153.858 171.382C153.81 172.506 157.363 173.567 161.775 173.757C166.188 173.947 169.835 173.187 169.882 172.063C169.93 170.939 166.378 169.883 161.965 169.693C157.553 169.503 153.905 170.263 153.858 171.382Z" fill="white"/>
    <path d="M154.889 171.351C154.889 171.423 154.913 171.494 154.957 171.551C155.485 170.891 158.425 170.496 161.93 170.649C165.434 170.802 168.332 171.435 168.791 172.137C168.844 172.085 168.874 172.015 168.876 171.942C168.907 171.182 165.804 170.422 161.935 170.258C158.066 170.094 154.92 170.591 154.889 171.351Z" fill="#8807F7"/>
    <path opacity="0.4" d="M154.889 171.351C154.889 171.423 154.913 171.494 154.957 171.551C155.485 170.891 158.425 170.496 161.93 170.649C165.434 170.802 168.332 171.435 168.791 172.137C168.844 172.085 168.874 172.015 168.876 171.942C168.907 171.182 165.804 170.422 161.935 170.258C158.066 170.094 154.92 170.591 154.889 171.351Z" fill="#8807F7"/>
    <path opacity="0.4" d="M154.943 171.551C155.424 172.253 158.311 172.886 161.805 173.034C165.299 173.182 168.25 172.797 168.777 172.137C168.308 171.435 165.42 170.801 161.916 170.648C158.411 170.495 155.482 170.891 154.943 171.551Z" fill="#8807F7"/>
    <path d="M152.061 170.337C152.014 171.461 155.566 172.522 159.978 172.712C164.391 172.902 168.038 172.142 168.085 171.023C168.133 169.904 164.581 168.838 160.168 168.648C155.756 168.458 152.13 169.218 152.061 170.337Z" fill="#8807F7"/>
    <path d="M152.17 168.312L152.084 170.342L168.126 171.023L168.212 168.992L152.17 168.312Z" fill="#8807F7"/>
    <path d="M152.17 168.311C152.123 169.43 155.675 170.491 160.088 170.681C164.5 170.871 168.147 170.111 168.195 168.992C168.242 167.873 164.69 166.807 160.278 166.617C155.865 166.427 152.218 167.187 152.17 168.311Z" fill="#8807F7"/>
    <path opacity="0.4" d="M152.17 168.311C152.123 169.43 155.675 170.491 160.088 170.681C164.5 170.871 168.147 170.111 168.195 168.992C168.242 167.873 164.69 166.807 160.278 166.617C155.865 166.427 152.218 167.187 152.17 168.311Z" fill="white"/>
    <path d="M153.186 168.273C153.183 168.346 153.208 168.417 153.254 168.474C153.782 167.814 156.722 167.418 160.227 167.577C163.731 167.735 166.629 168.358 167.088 169.06C167.136 169.007 167.166 168.94 167.173 168.87C167.204 168.11 164.101 167.344 160.232 167.181C156.363 167.017 153.217 167.513 153.186 168.273Z" fill="#8807F7"/>
    <path opacity="0.4" d="M153.186 168.273C153.183 168.346 153.208 168.417 153.254 168.474C153.782 167.814 156.722 167.418 160.227 167.577C163.731 167.735 166.629 168.358 167.088 169.06C167.136 169.007 167.166 168.94 167.173 168.87C167.204 168.11 164.101 167.344 160.232 167.181C156.363 167.017 153.217 167.513 153.186 168.273Z" fill="#8807F7"/>
    <path opacity="0.4" d="M153.264 168.474C153.739 169.176 156.631 169.81 160.125 169.957C163.619 170.105 166.57 169.72 167.098 169.06C166.628 168.358 163.741 167.725 160.236 167.577C156.731 167.429 153.797 167.814 153.264 168.474Z" fill="#8807F7"/>
    <path d="M152.295 166.632C152.248 167.756 155.8 168.817 160.213 169.007C164.625 169.197 168.272 168.437 168.32 167.313C168.367 166.188 164.815 165.133 160.403 164.943C155.99 164.753 152.343 165.513 152.295 166.632Z" fill="#8807F7"/>
    <path d="M152.381 164.602L152.295 166.632L168.337 167.313L168.423 165.282L152.381 164.602Z" fill="#8807F7"/>
    <path d="M152.389 164.6C152.342 165.724 155.894 166.785 160.306 166.975C164.719 167.165 168.361 166.405 168.408 165.286C168.456 164.167 164.904 163.101 160.491 162.911C156.079 162.721 152.437 163.481 152.389 164.6Z" fill="#8807F7"/>
    <path opacity="0.4" d="M152.389 164.6C152.342 165.724 155.894 166.785 160.306 166.975C164.719 167.165 168.361 166.405 168.408 165.286C168.456 164.167 164.904 163.101 160.491 162.911C156.079 162.721 152.437 163.481 152.389 164.6Z" fill="white"/>
    <path d="M153.412 164.568C153.412 164.641 153.436 164.712 153.481 164.769C154.009 164.109 156.948 163.713 160.453 163.872C163.958 164.03 166.855 164.653 167.315 165.355C167.367 165.305 167.397 165.237 167.399 165.165C167.431 164.405 164.327 163.639 160.458 163.476C156.59 163.312 153.444 163.808 153.412 164.568Z" fill="#8807F7"/>
    <path opacity="0.4" d="M153.412 164.568C153.412 164.641 153.436 164.712 153.481 164.769C154.009 164.109 156.948 163.713 160.453 163.872C163.958 164.03 166.855 164.653 167.315 165.355C167.367 165.305 167.397 165.237 167.399 165.165C167.431 164.405 164.327 163.639 160.458 163.476C156.59 163.312 153.444 163.808 153.412 164.568Z" fill="#8807F7"/>
    <path opacity="0.4" d="M153.482 164.769C153.963 165.471 156.85 166.104 160.344 166.252C163.838 166.4 166.789 166.014 167.316 165.355C166.847 164.653 163.96 164.019 160.455 163.871C156.95 163.724 154.021 164.12 153.482 164.769Z" fill="#8807F7"/>
    <path d="M150.616 163.56C150.568 164.679 154.12 165.74 158.533 165.93C162.945 166.12 166.593 165.36 166.64 164.241C166.688 163.122 163.135 162.056 158.723 161.866C154.31 161.676 150.663 162.436 150.616 163.56Z" fill="#8807F7"/>
    <path d="M150.701 161.514L150.615 163.544L166.657 164.225L166.743 162.195L150.701 161.514Z" fill="#8807F7"/>
    <path d="M150.694 161.528C150.646 162.647 154.199 163.708 158.611 163.898C163.024 164.088 166.671 163.328 166.718 162.209C166.766 161.09 163.214 160.024 158.801 159.834C154.389 159.644 150.741 160.425 150.694 161.528Z" fill="#8807F7"/>
    <path opacity="0.4" d="M150.694 161.528C150.646 162.647 154.199 163.708 158.611 163.898C163.024 164.088 166.671 163.328 166.718 162.209C166.766 161.09 163.214 160.024 158.801 159.834C154.389 159.644 150.741 160.425 150.694 161.528Z" fill="white"/>
    <path d="M151.725 161.48C151.722 161.553 151.746 161.625 151.794 161.681C152.321 161.021 155.261 160.625 158.766 160.784C162.271 160.942 165.168 161.565 165.627 162.267C165.676 162.214 165.705 162.148 165.712 162.077C165.744 161.317 162.64 160.551 158.771 160.388C154.902 160.224 151.757 160.731 151.725 161.48Z" fill="#8807F7"/>
    <path opacity="0.4" d="M151.725 161.48C151.722 161.553 151.746 161.625 151.794 161.681C152.321 161.021 155.261 160.625 158.766 160.784C162.271 160.942 165.168 161.565 165.627 162.267C165.676 162.214 165.705 162.148 165.712 162.077C165.744 161.317 162.64 160.551 158.771 160.388C154.902 160.224 151.757 160.731 151.725 161.48Z" fill="#8807F7"/>
    <path opacity="0.4" d="M151.795 161.692C152.27 162.394 155.162 163.027 158.656 163.175C162.151 163.323 165.101 162.938 165.629 162.278C165.159 161.576 162.272 160.942 158.767 160.795C155.263 160.647 152.328 161.032 151.795 161.692Z" fill="#8807F7"/>
    <path d="M153.186 160.953C153.139 162.072 156.691 163.133 161.103 163.323C165.516 163.513 169.163 162.752 169.21 161.634C169.258 160.515 165.706 159.448 161.293 159.258C156.881 159.068 153.234 159.828 153.186 160.953Z" fill="#8807F7"/>
    <path d="M153.272 158.92L153.186 160.95L169.227 161.631L169.313 159.601L153.272 158.92Z" fill="#8807F7"/>
    <path d="M153.272 158.92C153.224 160.039 156.777 161.1 161.189 161.29C165.602 161.48 169.249 160.72 169.296 159.601C169.344 158.482 165.792 157.416 161.379 157.226C156.967 157.036 153.319 157.786 153.272 158.92Z" fill="#8807F7"/>
    <path opacity="0.4" d="M153.272 158.92C153.224 160.039 156.777 161.1 161.189 161.29C165.602 161.48 169.249 160.72 169.296 159.601C169.344 158.482 165.792 157.416 161.379 157.226C156.967 157.036 153.319 157.786 153.272 158.92Z" fill="white"/>
    <path d="M154.295 158.884C154.297 158.956 154.321 159.026 154.364 159.084C154.891 158.424 157.837 158.029 161.336 158.187C164.835 158.345 167.744 158.968 168.198 159.67C168.249 159.619 168.281 159.552 168.287 159.48C168.319 158.72 165.215 157.955 161.346 157.791C157.478 157.627 154.332 158.124 154.295 158.884Z" fill="#8807F7"/>
    <path opacity="0.4" d="M154.295 158.884C154.297 158.956 154.321 159.026 154.364 159.084C154.891 158.424 157.837 158.029 161.336 158.187C164.835 158.345 167.744 158.968 168.198 159.67C168.249 159.619 168.281 159.552 168.287 159.48C168.319 158.72 165.215 157.955 161.346 157.791C157.478 157.627 154.332 158.124 154.295 158.884Z" fill="#8807F7"/>
    <path opacity="0.4" d="M154.365 159.084C154.846 159.786 157.733 160.42 161.227 160.567C164.721 160.715 167.677 160.33 168.199 159.67C167.735 158.968 164.842 158.335 161.338 158.187C157.833 158.039 154.904 158.424 154.365 159.084Z" fill="#8807F7"/>
    <path d="M151.491 157.875C151.443 158.994 154.995 160.061 159.408 160.245C163.82 160.43 167.468 159.675 167.515 158.556C167.563 157.437 164.01 156.371 159.598 156.181C155.185 155.991 151.522 156.73 151.491 157.875Z" fill="#8807F7"/>
    <path d="M151.576 155.837L151.49 157.867L167.532 158.548L167.618 156.518L151.576 155.837Z" fill="#8807F7"/>
    <path d="M151.592 155.843C151.545 156.962 155.097 158.028 159.509 158.213C163.922 158.398 167.569 157.648 167.617 156.524C167.664 155.4 164.112 154.339 159.699 154.149C155.287 153.959 151.64 154.719 151.592 155.843Z" fill="#8807F7"/>
    <path opacity="0.4" d="M151.592 155.843C151.545 156.962 155.097 158.028 159.509 158.213C163.922 158.398 167.569 157.648 167.617 156.524C167.664 155.4 164.112 154.339 159.699 154.149C155.287 153.959 151.64 154.719 151.592 155.843Z" fill="white"/>
    <path d="M152.584 155.807C152.582 155.88 152.607 155.951 152.653 156.008C153.181 155.348 156.12 154.952 159.625 155.11C163.13 155.269 166.027 155.891 166.487 156.599C166.538 156.546 166.568 156.477 166.571 156.403C166.603 155.643 163.499 154.883 159.63 154.714C155.762 154.546 152.637 155.047 152.584 155.807Z" fill="#8807F7"/>
    <path opacity="0.4" d="M152.584 155.807C152.582 155.88 152.607 155.951 152.653 156.008C153.181 155.348 156.12 154.952 159.625 155.11C163.13 155.269 166.027 155.891 166.487 156.599C166.538 156.546 166.568 156.477 166.571 156.403C166.603 155.643 163.499 154.883 159.63 154.714C155.762 154.546 152.637 155.047 152.584 155.807Z" fill="#8807F7"/>
    <path opacity="0.4" d="M152.662 156.007C153.142 156.709 156.03 157.343 159.524 157.496C163.018 157.649 165.968 157.258 166.496 156.599C166.026 155.891 163.139 155.258 159.635 155.11C156.13 154.962 153.2 155.348 152.662 156.007Z" fill="#8807F7"/>
    <path d="M129.842 172.433C129.79 173.557 133.342 174.618 137.76 174.803C142.177 174.987 145.814 174.238 145.861 173.114C145.909 171.989 142.362 170.929 137.944 170.744C133.527 170.559 129.89 171.309 129.842 172.433Z" fill="#8807F7"/>
    <path d="M129.928 170.39L129.842 172.42L145.883 173.101L145.97 171.071L129.928 170.39Z" fill="#8807F7"/>
    <path d="M129.944 170.401C129.896 171.525 133.449 172.586 137.861 172.776C142.274 172.966 145.921 172.206 145.968 171.081C146.016 169.957 142.464 168.896 138.051 168.712C133.639 168.527 129.991 169.276 129.944 170.401Z" fill="#8807F7"/>
    <path opacity="0.4" d="M129.944 170.401C129.896 171.525 133.449 172.586 137.861 172.776C142.274 172.966 145.921 172.206 145.968 171.081C146.016 169.957 142.464 168.896 138.051 168.712C133.639 168.527 129.991 169.276 129.944 170.401Z" fill="white"/>
    <path d="M130.928 170.363C130.924 170.437 130.949 170.509 130.997 170.564C131.525 169.904 134.465 169.508 137.969 169.667C141.474 169.825 144.372 170.453 144.831 171.155C144.879 171.101 144.909 171.032 144.915 170.96C144.947 170.2 141.843 169.44 137.975 169.276C134.106 169.112 130.965 169.603 130.928 170.363Z" fill="#8807F7"/>
    <path opacity="0.4" d="M130.928 170.363C130.924 170.437 130.949 170.509 130.997 170.564C131.525 169.904 134.465 169.508 137.969 169.667C141.474 169.825 144.372 170.453 144.831 171.155C144.879 171.101 144.909 171.032 144.915 170.96C144.947 170.2 141.843 169.44 137.975 169.276C134.106 169.112 130.965 169.603 130.928 170.363Z" fill="#8807F7"/>
    <path opacity="0.4" d="M131.029 170.564C131.504 171.266 134.397 171.905 137.891 172.053C141.385 172.201 144.335 171.815 144.863 171.156C144.394 170.454 141.506 169.815 138.002 169.667C134.497 169.519 131.562 169.926 131.029 170.564Z" fill="#8807F7"/>
    <path d="M136.825 170.453C136.561 171.546 139.85 173.261 144.162 174.285C148.474 175.309 152.185 175.256 152.443 174.164C152.702 173.071 149.414 171.356 145.101 170.332C140.789 169.308 137.084 169.361 136.825 170.453Z" fill="#8807F7"/>
    <path d="M137.289 168.486L136.818 170.463L152.439 174.179L152.909 172.202L137.289 168.486Z" fill="#8807F7"/>
    <path d="M137.294 168.474C137.03 169.566 140.318 171.282 144.631 172.311C148.943 173.34 152.653 173.282 152.912 172.19C153.171 171.097 149.898 169.398 145.581 168.342C141.263 167.286 137.563 167.381 137.294 168.474Z" fill="#8807F7"/>
    <path opacity="0.4" d="M137.294 168.474C137.03 169.566 140.318 171.282 144.631 172.311C148.943 173.34 152.653 173.282 152.912 172.19C153.171 171.097 149.898 169.398 145.581 168.342C141.263 167.286 137.563 167.381 137.294 168.474Z" fill="white"/>
    <path d="M138.302 168.633C138.286 168.704 138.297 168.78 138.333 168.844C138.983 168.316 141.938 168.474 145.348 169.287C148.758 170.1 151.487 171.272 151.814 172.047C151.873 172.005 151.916 171.944 151.935 171.873C152.109 171.134 149.206 169.799 145.438 168.902C141.669 168.004 138.481 167.894 138.302 168.633Z" fill="#8807F7"/>
    <path opacity="0.4" d="M138.302 168.633C138.286 168.704 138.297 168.78 138.333 168.844C138.983 168.316 141.938 168.474 145.348 169.287C148.758 170.1 151.487 171.272 151.814 172.047C151.873 172.005 151.916 171.944 151.935 171.873C152.109 171.134 149.206 169.799 145.438 168.902C141.669 168.004 138.481 167.894 138.302 168.633Z" fill="#8807F7"/>
    <path opacity="0.4" d="M138.342 168.87C138.68 169.651 141.393 170.822 144.808 171.63C148.222 172.438 151.178 172.622 151.822 172.073C151.495 171.297 148.777 170.126 145.356 169.313C141.936 168.5 138.986 168.294 138.342 168.87Z" fill="#8807F7"/>
    <path d="M157.182 157.205C161.176 157.205 164.413 153.968 164.413 149.974C164.413 145.981 161.176 142.743 157.182 142.743C153.189 142.743 149.951 145.981 149.951 149.974C149.951 153.968 153.189 157.205 157.182 157.205Z" fill="#8807F7"/>
    <path d="M158.049 157.205C162.043 157.205 165.28 153.968 165.28 149.974C165.28 145.981 162.043 142.743 158.049 142.743C154.056 142.743 150.818 145.981 150.818 149.974C150.818 153.968 154.056 157.205 158.049 157.205Z" fill="#8807F7"/>
    <path opacity="0.5" d="M158.049 157.205C162.043 157.205 165.28 153.968 165.28 149.974C165.28 145.981 162.043 142.743 158.049 142.743C154.056 142.743 150.818 145.981 150.818 149.974C150.818 153.968 154.056 157.205 158.049 157.205Z" fill="white"/>
    <path d="M161.884 153.803C163.999 151.689 163.999 148.26 161.884 146.145C159.769 144.03 156.341 144.03 154.226 146.145C152.111 148.26 152.111 151.689 154.226 153.803C156.341 155.918 159.769 155.918 161.884 153.803Z" fill="#8807F7"/>
    <path d="M259.356 174.406C259.314 175.525 255.693 176.307 251.26 176.148C246.826 175.99 243.274 174.95 243.311 173.831C243.348 172.712 246.979 171.926 251.407 172.084C255.836 172.242 259.399 173.282 259.356 174.406Z" fill="#8807F7"/>
    <path d="M243.383 171.782L243.311 173.813L259.356 174.387L259.429 172.357L243.383 171.782Z" fill="#8807F7"/>
    <path d="M259.434 172.374C259.392 173.493 255.771 174.275 251.338 174.116C246.904 173.958 243.352 172.918 243.389 171.799C243.426 170.68 247.052 169.894 251.486 170.052C255.919 170.21 259.477 171.25 259.434 172.374Z" fill="#8807F7"/>
    <path opacity="0.4" d="M259.434 172.374C259.392 173.493 255.771 174.275 251.338 174.116C246.904 173.958 243.352 172.918 243.389 171.799C243.426 170.68 247.052 169.894 251.486 170.052C255.919 170.21 259.477 171.25 259.434 172.374Z" fill="white"/>
    <path d="M258.399 172.258C258.396 172.332 258.366 172.401 258.315 172.454C257.834 171.752 254.942 171.134 251.453 171.013C247.964 170.891 245.009 171.292 244.486 171.952C244.44 171.898 244.414 171.829 244.412 171.757C244.444 170.997 247.579 170.48 251.464 170.617C255.348 170.754 258.426 171.509 258.399 172.258Z" fill="#8807F7"/>
    <path opacity="0.4" d="M258.399 172.258C258.396 172.332 258.366 172.401 258.315 172.454C257.834 171.752 254.942 171.134 251.453 171.013C247.964 170.891 245.009 171.292 244.486 171.952C244.44 171.898 244.414 171.829 244.412 171.757C244.444 170.997 247.579 170.48 251.464 170.617C255.348 170.754 258.426 171.509 258.399 172.258Z" fill="#8807F7"/>
    <path opacity="0.4" d="M258.335 172.453C257.807 173.113 254.872 173.509 251.367 173.393C247.863 173.277 244.96 172.654 244.506 171.952C245.034 171.292 247.958 170.896 251.473 171.013C254.988 171.129 257.854 171.752 258.335 172.453Z" fill="#8807F7"/>
    <path d="M261.27 171.472C261.228 172.591 257.607 173.372 253.174 173.214C248.74 173.055 245.188 172.015 245.225 170.891C245.262 169.767 248.893 168.991 253.322 169.149C257.75 169.308 261.318 170.348 261.27 171.472Z" fill="#8807F7"/>
    <path d="M245.313 168.876L245.24 170.907L261.286 171.484L261.359 169.453L245.313 168.876Z" fill="#8807F7"/>
    <path d="M261.341 169.44C261.299 170.559 257.678 171.34 253.244 171.182C248.811 171.023 245.253 169.984 245.295 168.859C245.338 167.735 248.958 166.959 253.392 167.118C257.826 167.276 261.378 168.342 261.341 169.44Z" fill="#8807F7"/>
    <path opacity="0.4" d="M261.341 169.44C261.299 170.559 257.678 171.34 253.244 171.182C248.811 171.023 245.253 169.984 245.295 168.859C245.338 167.735 248.958 166.959 253.392 167.118C257.826 167.276 261.378 168.342 261.341 169.44Z" fill="white"/>
    <path d="M260.337 169.324C260.335 169.396 260.304 169.464 260.252 169.514C259.772 168.817 256.879 168.2 253.391 168.078C249.902 167.957 246.941 168.358 246.424 169.018C246.377 168.963 246.351 168.894 246.35 168.823C246.381 168.063 249.516 167.545 253.401 167.682C257.286 167.82 260.363 168.564 260.337 169.324Z" fill="#8807F7"/>
    <path opacity="0.4" d="M260.337 169.324C260.335 169.396 260.304 169.464 260.252 169.514C259.772 168.817 256.879 168.2 253.391 168.078C249.902 167.957 246.941 168.358 246.424 169.018C246.377 168.963 246.351 168.894 246.35 168.823C246.381 168.063 249.516 167.545 253.401 167.682C257.286 167.82 260.363 168.564 260.337 169.324Z" fill="#8807F7"/>
    <path opacity="0.4" d="M260.264 169.514C259.736 170.179 256.802 170.57 253.297 170.459C249.792 170.348 246.889 169.72 246.436 169.018C246.963 168.358 249.887 167.962 253.403 168.078C256.918 168.194 259.763 168.817 260.264 169.514Z" fill="#8807F7"/>
    <path d="M261.341 167.756C261.299 168.881 257.672 169.662 253.244 169.503C248.816 169.345 245.253 168.305 245.295 167.181C245.338 166.057 248.958 165.281 253.392 165.439C257.826 165.598 261.378 166.637 261.341 167.756Z" fill="#8807F7"/>
    <path d="M245.384 165.164L245.311 167.195L261.356 167.772L261.429 165.741L245.384 165.164Z" fill="#8807F7"/>
    <path d="M261.435 165.703C261.392 166.827 257.766 167.608 253.338 167.45C248.91 167.292 245.347 166.252 245.389 165.128C245.431 164.003 249.052 163.227 253.48 163.386C257.909 163.544 261.471 164.605 261.435 165.703Z" fill="#8807F7"/>
    <path opacity="0.4" d="M261.435 165.703C261.392 166.827 257.766 167.608 253.338 167.45C248.91 167.292 245.347 166.252 245.389 165.128C245.431 164.003 249.052 163.227 253.48 163.386C257.909 163.544 261.471 164.605 261.435 165.703Z" fill="white"/>
    <path d="M260.41 165.613C260.403 165.684 260.373 165.751 260.325 165.803C259.839 165.107 256.947 164.489 253.464 164.362C249.98 164.236 247.019 164.642 246.496 165.307C246.45 165.251 246.426 165.179 246.428 165.107C246.428 164.346 249.595 163.834 253.479 163.972C257.364 164.109 260.436 164.853 260.41 165.613Z" fill="#8807F7"/>
    <path opacity="0.4" d="M260.41 165.613C260.403 165.684 260.373 165.751 260.325 165.803C259.839 165.107 256.947 164.489 253.464 164.362C249.98 164.236 247.019 164.642 246.496 165.307C246.45 165.251 246.426 165.179 246.428 165.107C246.428 164.346 249.595 163.834 253.479 163.972C257.364 164.109 260.436 164.853 260.41 165.613Z" fill="#8807F7"/>
    <path opacity="0.4" d="M260.303 165.804C259.775 166.469 256.841 166.859 253.336 166.748C249.831 166.638 246.928 166.009 246.474 165.307C247.002 164.642 249.926 164.252 253.442 164.363C256.957 164.474 259.818 165.107 260.303 165.804Z" fill="#8807F7"/>
    <path d="M263.27 164.821C263.228 165.946 259.602 166.727 255.174 166.569C250.745 166.41 247.183 165.37 247.225 164.246C247.267 163.122 250.888 162.346 255.322 162.504C259.755 162.663 263.307 163.703 263.27 164.821Z" fill="#8807F7"/>
    <path d="M247.274 162.205L247.201 164.236L263.247 164.81L263.32 162.779L247.274 162.205Z" fill="#8807F7"/>
    <path d="M263.336 162.79C263.299 163.914 259.672 164.695 255.244 164.537C250.816 164.378 247.253 163.338 247.295 162.214C247.338 161.09 250.958 160.314 255.387 160.472C259.815 160.631 263.378 161.671 263.336 162.79Z" fill="#8807F7"/>
    <path opacity="0.4" d="M263.336 162.79C263.299 163.914 259.672 164.695 255.244 164.537C250.816 164.378 247.253 163.338 247.295 162.214C247.338 161.09 250.958 160.314 255.387 160.472C259.815 160.631 263.378 161.671 263.336 162.79Z" fill="white"/>
    <path d="M262.308 162.679C262.301 162.75 262.272 162.816 262.224 162.869C261.738 162.172 258.846 161.555 255.362 161.428C251.879 161.301 248.918 161.708 248.395 162.373C248.349 162.316 248.325 162.245 248.326 162.172C248.353 161.412 251.493 160.9 255.378 161.037C259.263 161.175 262.361 161.919 262.308 162.679Z" fill="#8807F7"/>
    <path opacity="0.4" d="M262.308 162.679C262.301 162.75 262.272 162.816 262.224 162.869C261.738 162.172 258.846 161.555 255.362 161.428C251.879 161.301 248.918 161.708 248.395 162.373C248.349 162.316 248.325 162.245 248.326 162.172C248.353 161.412 251.493 160.9 255.378 161.037C259.263 161.175 262.361 161.919 262.308 162.679Z" fill="#8807F7"/>
    <path opacity="0.4" d="M262.241 162.869C261.713 163.534 258.778 163.925 255.274 163.814C251.769 163.703 248.866 163.075 248.412 162.373C248.94 161.708 251.864 161.318 255.379 161.428C258.894 161.539 261.755 162.173 262.241 162.869Z" fill="#8807F7"/>
    <path d="M199.561 172.148C199.514 173.272 203.06 174.333 207.478 174.523C211.896 174.713 215.533 173.953 215.58 172.829C215.628 171.705 212.081 170.644 207.663 170.459C203.245 170.274 199.593 171.029 199.561 172.148Z" fill="#8807F7"/>
    <path d="M199.631 170.109L199.545 172.139L215.587 172.82L215.673 170.79L199.631 170.109Z" fill="#8807F7"/>
    <path d="M199.647 170.115C199.599 171.24 203.152 172.301 207.564 172.491C211.977 172.681 215.624 171.921 215.671 170.796C215.719 169.672 212.167 168.611 207.754 168.426C203.342 168.242 199.694 168.997 199.647 170.115Z" fill="#8807F7"/>
    <path opacity="0.4" d="M199.647 170.115C199.599 171.24 203.152 172.301 207.564 172.491C211.977 172.681 215.624 171.921 215.671 170.796C215.719 169.672 212.167 168.611 207.754 168.426C203.342 168.242 199.694 168.997 199.647 170.115Z" fill="white"/>
    <path d="M200.662 170.084C200.659 170.155 200.684 170.225 200.731 170.279C201.259 169.619 204.199 169.223 207.703 169.382C211.208 169.54 214.106 170.168 214.565 170.87C214.613 170.815 214.643 170.747 214.649 170.675C214.681 169.915 211.578 169.155 207.709 168.991C203.84 168.827 200.694 169.323 200.662 170.084Z" fill="#8807F7"/>
    <path opacity="0.4" d="M200.662 170.084C200.659 170.155 200.684 170.225 200.731 170.279C201.259 169.619 204.199 169.223 207.703 169.382C211.208 169.54 214.106 170.168 214.565 170.87C214.613 170.815 214.643 170.747 214.649 170.675C214.681 169.915 211.578 169.155 207.709 168.991C203.84 168.827 200.694 169.323 200.662 170.084Z" fill="#8807F7"/>
    <path opacity="0.4" d="M200.732 170.279C201.207 170.986 204.1 171.619 207.594 171.767C211.088 171.915 214.039 171.53 214.566 170.87C214.097 170.168 211.21 169.535 207.705 169.382C204.2 169.228 201.266 169.619 200.732 170.279Z" fill="#8807F7"/>
    <path d="M197.858 169.07C197.81 170.195 201.363 171.255 205.775 171.445C210.188 171.636 213.835 170.875 213.882 169.751C213.93 168.627 210.378 167.566 205.965 167.381C201.553 167.197 197.905 167.951 197.858 169.07Z" fill="#8807F7"/>
    <path d="M197.944 167.048L197.857 169.078L213.899 169.759L213.985 167.728L197.944 167.048Z" fill="#8807F7"/>
    <path d="M197.952 167.038C197.904 168.163 201.456 169.224 205.869 169.414C210.281 169.604 213.929 168.844 213.976 167.719C214.024 166.595 210.471 165.539 206.059 165.349C201.646 165.159 197.983 165.919 197.952 167.038Z" fill="#8807F7"/>
    <path opacity="0.4" d="M197.952 167.038C197.904 168.163 201.456 169.224 205.869 169.414C210.281 169.604 213.929 168.844 213.976 167.719C214.024 166.595 210.471 165.539 206.059 165.349C201.646 165.159 197.983 165.919 197.952 167.038Z" fill="white"/>
    <path d="M198.975 167.006C198.977 167.078 199.001 167.148 199.043 167.207C199.571 166.547 202.516 166.151 206.016 166.304C209.515 166.457 212.423 167.091 212.877 167.793C212.929 167.74 212.961 167.671 212.967 167.597C212.999 166.837 209.895 166.077 206.026 165.914C202.157 165.75 199.012 166.23 198.975 167.006Z" fill="#8807F7"/>
    <path opacity="0.4" d="M198.975 167.006C198.977 167.078 199.001 167.148 199.043 167.207C199.571 166.547 202.516 166.151 206.016 166.304C209.515 166.457 212.423 167.091 212.877 167.793C212.929 167.74 212.961 167.671 212.967 167.597C212.999 166.837 209.895 166.077 206.026 165.914C202.157 165.75 199.012 166.23 198.975 167.006Z" fill="#8807F7"/>
    <path opacity="0.4" d="M199.053 167.207C199.533 167.909 202.42 168.542 205.914 168.69C209.408 168.838 212.364 168.453 212.887 167.793C212.422 167.091 209.53 166.458 206.025 166.305C202.52 166.151 199.581 166.547 199.053 167.207Z" fill="#8807F7"/>
    <path d="M198.077 165.365C198.029 166.49 201.581 167.551 205.994 167.741C210.406 167.931 214.054 167.171 214.101 166.046C214.149 164.922 210.596 163.861 206.184 163.676C201.771 163.492 198.124 164.247 198.077 165.365Z" fill="#8807F7"/>
    <path d="M198.162 163.333L198.076 165.363L214.118 166.044L214.204 164.013L198.162 163.333Z" fill="#8807F7"/>
    <path d="M198.163 163.333C198.115 164.457 201.667 165.518 206.08 165.708C210.492 165.898 214.139 165.138 214.187 164.014C214.234 162.889 210.682 161.829 206.27 161.644C201.857 161.459 198.21 162.214 198.163 163.333Z" fill="#8807F7"/>
    <path opacity="0.4" d="M198.163 163.333C198.115 164.457 201.667 165.518 206.08 165.708C210.492 165.898 214.139 165.138 214.187 164.014C214.234 162.889 210.682 161.829 206.27 161.644C201.857 161.459 198.21 162.214 198.163 163.333Z" fill="white"/>
    <path d="M199.186 163.302C199.183 163.373 199.207 163.443 199.254 163.497C199.782 162.843 202.722 162.441 206.227 162.6C209.731 162.758 212.629 163.386 213.088 164.088C213.137 164.034 213.166 163.965 213.173 163.893C213.205 163.133 210.101 162.373 206.232 162.209C202.363 162.046 199.217 162.536 199.186 163.302Z" fill="#8807F7"/>
    <path opacity="0.4" d="M199.186 163.302C199.183 163.373 199.207 163.443 199.254 163.497C199.782 162.843 202.722 162.441 206.227 162.6C209.731 162.758 212.629 163.386 213.088 164.088C213.137 164.034 213.166 163.965 213.173 163.893C213.205 163.133 210.101 162.373 206.232 162.209C202.363 162.046 199.217 162.536 199.186 163.302Z" fill="#8807F7"/>
    <path opacity="0.4" d="M199.256 163.497C199.731 164.204 202.623 164.837 206.117 164.985C209.612 165.133 212.562 164.748 213.09 164.088C212.62 163.386 209.733 162.753 206.228 162.599C202.724 162.446 199.789 162.842 199.256 163.497Z" fill="#8807F7"/>
    <path d="M196.389 162.288C196.342 163.412 199.894 164.473 204.306 164.663C208.719 164.853 212.366 164.093 212.414 162.969C212.461 161.845 208.909 160.789 204.496 160.599C200.084 160.409 196.431 161.169 196.389 162.288Z" fill="#8807F7"/>
    <path d="M196.475 160.251L196.389 162.281L212.43 162.962L212.516 160.931L196.475 160.251Z" fill="#8807F7"/>
    <path d="M196.483 160.256C196.435 161.38 199.988 162.441 204.4 162.631C208.813 162.821 212.46 162.061 212.507 160.937C212.555 159.813 209.003 158.757 204.59 158.567C200.178 158.377 196.53 159.137 196.483 160.256Z" fill="#8807F7"/>
    <path opacity="0.4" d="M196.483 160.256C196.435 161.38 199.988 162.441 204.4 162.631C208.813 162.821 212.46 162.061 212.507 160.937C212.555 159.813 209.003 158.757 204.59 158.567C200.178 158.377 196.53 159.137 196.483 160.256Z" fill="white"/>
    <path d="M197.514 160.225C197.512 160.297 197.534 160.368 197.577 160.425C198.105 159.766 201.05 159.37 204.555 159.528C208.059 159.687 210.957 160.309 211.416 161.011C211.465 160.957 211.495 160.889 211.501 160.816C211.532 160.061 208.429 159.296 204.56 159.132C200.691 158.969 197.545 159.465 197.514 160.225Z" fill="#8807F7"/>
    <path opacity="0.4" d="M197.514 160.225C197.512 160.297 197.534 160.368 197.577 160.425C198.105 159.766 201.05 159.37 204.555 159.528C208.059 159.687 210.957 160.309 211.416 161.011C211.465 160.957 211.495 160.889 211.501 160.816C211.532 160.061 208.429 159.296 204.56 159.132C200.691 158.969 197.545 159.465 197.514 160.225Z" fill="#8807F7"/>
    <path opacity="0.4" d="M197.568 160.425C198.049 161.127 200.936 161.76 204.43 161.908C207.924 162.056 210.88 161.67 211.408 161.011C210.938 160.309 208.045 159.675 204.546 159.528C201.047 159.38 198.107 159.765 197.568 160.425Z" fill="#8807F7"/>
    <path d="M198.975 159.681C198.928 160.805 202.48 161.866 206.892 162.056C211.305 162.246 214.952 161.486 214.999 160.362C215.047 159.238 211.495 158.182 207.082 157.992C202.67 157.802 199.044 158.562 198.975 159.681Z" fill="#8807F7"/>
    <path d="M199.061 157.651L198.975 159.681L215.016 160.362L215.102 158.332L199.061 157.651Z" fill="#8807F7"/>
    <path d="M199.053 157.648C199.006 158.773 202.558 159.833 206.97 160.023C211.383 160.213 215.03 159.453 215.078 158.329C215.125 157.205 211.573 156.149 207.16 155.959C202.748 155.769 199.117 156.529 199.053 157.648Z" fill="#8807F7"/>
    <path opacity="0.4" d="M199.053 157.648C199.006 158.773 202.558 159.833 206.97 160.023C211.383 160.213 215.03 159.453 215.078 158.329C215.125 157.205 211.573 156.149 207.16 155.959C202.748 155.769 199.117 156.529 199.053 157.648Z" fill="white"/>
    <path d="M200.092 157.617C200.092 157.689 200.116 157.76 200.16 157.817C200.688 157.158 203.628 156.762 207.133 156.92C210.637 157.078 213.535 157.701 213.994 158.403C214.021 158.378 214.042 158.348 214.056 158.314C214.071 158.281 214.078 158.244 214.079 158.208C214.111 157.453 211.007 156.688 207.138 156.524C203.269 156.361 200.092 156.857 200.092 157.617Z" fill="#8807F7"/>
    <path opacity="0.4" d="M200.092 157.617C200.092 157.689 200.116 157.76 200.16 157.817C200.688 157.158 203.628 156.762 207.133 156.92C210.637 157.078 213.535 157.701 213.994 158.403C214.021 158.378 214.042 158.348 214.056 158.314C214.071 158.281 214.078 158.244 214.079 158.208C214.111 157.453 211.007 156.688 207.138 156.524C203.269 156.361 200.092 156.857 200.092 157.617Z" fill="#8807F7"/>
    <path opacity="0.4" d="M200.162 157.818C200.642 158.52 203.53 159.153 207.024 159.301C210.518 159.449 213.468 159.064 213.996 158.404C213.526 157.702 210.639 157.068 207.135 156.921C203.63 156.773 200.7 157.158 200.162 157.818Z" fill="#8807F7"/>
    <path d="M197.288 156.609C197.24 157.728 200.792 158.789 205.205 158.979C209.617 159.169 213.259 158.409 213.312 157.29C213.365 156.171 209.807 155.105 205.395 154.915C200.982 154.725 197.335 155.485 197.288 156.609Z" fill="#8807F7"/>
    <path d="M197.373 154.569L197.287 156.599L213.329 157.28L213.415 155.25L197.373 154.569Z" fill="#8807F7"/>
    <path d="M197.381 154.577C197.334 155.696 200.886 156.757 205.299 156.947C209.711 157.137 213.358 156.377 213.406 155.258C213.453 154.139 209.901 153.073 205.489 152.883C201.076 152.693 197.429 153.453 197.381 154.577Z" fill="#8807F7"/>
    <path opacity="0.4" d="M197.381 154.577C197.334 155.696 200.886 156.757 205.299 156.947C209.711 157.137 213.358 156.377 213.406 155.258C213.453 154.139 209.901 153.073 205.489 152.883C201.076 152.693 197.429 153.453 197.381 154.577Z" fill="white"/>
    <path d="M198.397 154.54C198.394 154.613 198.418 154.684 198.465 154.74C198.993 154.08 201.933 153.685 205.438 153.843C208.942 154.001 211.84 154.624 212.299 155.326C212.347 155.274 212.377 155.207 212.384 155.136C212.415 154.376 209.312 153.611 205.443 153.447C201.574 153.283 198.428 153.78 198.397 154.54Z" fill="#8807F7"/>
    <path opacity="0.4" d="M198.397 154.54C198.394 154.613 198.418 154.684 198.465 154.74C198.993 154.08 201.933 153.685 205.438 153.843C208.942 154.001 211.84 154.624 212.299 155.326C212.347 155.274 212.377 155.207 212.384 155.136C212.415 154.376 209.312 153.611 205.443 153.447C201.574 153.283 198.428 153.78 198.397 154.54Z" fill="#8807F7"/>
    <path opacity="0.4" d="M198.467 154.74C198.942 155.442 201.834 156.076 205.328 156.224C208.823 156.371 211.773 155.986 212.301 155.326C211.831 154.624 208.944 153.991 205.439 153.843C201.935 153.695 199 154.091 198.467 154.74Z" fill="#8807F7"/>
    <path d="M215.016 154.424C215.063 155.543 211.511 156.609 207.099 156.793C202.686 156.978 199.05 156.202 198.976 155.104C198.902 154.007 202.475 152.919 206.893 152.729C211.311 152.539 214.963 153.299 215.016 154.424Z" fill="#8807F7"/>
    <path d="M214.562 152.921L198.506 153.563L198.587 155.595L214.643 154.953L214.562 152.921Z" fill="#8807F7"/>
    <path d="M214.914 152.392C214.961 153.511 211.409 154.577 206.996 154.761C202.584 154.946 198.937 154.197 198.889 153.072C198.842 151.948 202.394 150.887 206.806 150.697C211.219 150.507 214.871 151.267 214.914 152.392Z" fill="#8807F7"/>
    <path opacity="0.4" d="M214.914 152.392C214.961 153.511 211.409 154.577 206.996 154.761C202.584 154.946 198.937 154.197 198.889 153.072C198.842 151.948 202.394 150.887 206.806 150.697C211.219 150.507 214.871 151.267 214.914 152.392Z" fill="white"/>
    <path d="M213.899 152.355C213.904 152.428 213.879 152.5 213.831 152.555C213.303 151.895 210.363 151.5 206.858 151.658C203.354 151.816 200.456 152.439 199.997 153.146C199.95 153.091 199.92 153.023 199.912 152.951C199.881 152.191 202.984 151.431 206.853 151.267C210.722 151.104 213.868 151.595 213.899 152.355Z" fill="#8807F7"/>
    <path opacity="0.4" d="M213.899 152.355C213.904 152.428 213.879 152.5 213.831 152.555C213.303 151.895 210.363 151.5 206.858 151.658C203.354 151.816 200.456 152.439 199.997 153.146C199.95 153.091 199.92 153.023 199.912 152.951C199.881 152.191 202.984 151.431 206.853 151.267C210.722 151.104 213.868 151.595 213.899 152.355Z" fill="#8807F7"/>
    <path opacity="0.4" d="M213.832 152.555C213.357 153.257 210.464 153.89 206.97 154.043C203.476 154.196 200.526 153.806 199.998 153.146C200.468 152.439 203.355 151.805 206.859 151.658C210.364 151.51 213.304 151.895 213.832 152.555Z" fill="#8807F7"/>
    <path d="M216.687 151.347C216.734 152.471 213.182 153.532 208.77 153.716C204.357 153.901 200.71 153.152 200.663 152.027C200.615 150.903 204.167 149.842 208.58 149.658C212.992 149.473 216.639 150.222 216.687 151.347Z" fill="#8807F7"/>
    <path d="M216.602 149.309L200.561 149.99L200.647 152.02L216.688 151.34L216.602 149.309Z" fill="#8807F7"/>
    <path d="M216.596 149.341C216.643 150.465 213.096 151.526 208.679 151.716C204.261 151.906 200.624 151.146 200.577 150.022C200.529 148.898 204.076 147.837 208.494 147.652C212.912 147.467 216.548 148.19 216.596 149.341Z" fill="#8807F7"/>
    <path opacity="0.4" d="M216.596 149.341C216.643 150.465 213.096 151.526 208.679 151.716C204.261 151.906 200.624 151.146 200.577 150.022C200.529 148.898 204.076 147.837 208.494 147.652C212.912 147.467 216.548 148.19 216.596 149.341Z" fill="white"/>
    <path d="M215.579 149.278C215.578 149.35 215.554 149.421 215.511 149.479C214.983 148.819 212.038 148.423 208.538 148.581C205.039 148.74 202.13 149.368 201.677 150.07C201.624 150.018 201.594 149.948 201.592 149.874C201.555 149.114 204.664 148.354 208.528 148.191C212.391 148.027 215.542 148.518 215.579 149.278Z" fill="#8807F7"/>
    <path opacity="0.4" d="M215.579 149.278C215.578 149.35 215.554 149.421 215.511 149.479C214.983 148.819 212.038 148.423 208.538 148.581C205.039 148.74 202.13 149.368 201.677 150.07C201.624 150.018 201.594 149.948 201.592 149.874C201.555 149.114 204.664 148.354 208.528 148.191C212.391 148.027 215.542 148.518 215.579 149.278Z" fill="#8807F7"/>
    <path opacity="0.4" d="M215.512 149.478C215.031 150.18 212.144 150.818 208.65 150.966C205.156 151.114 202.2 150.729 201.678 150.069C202.142 149.367 205.035 148.728 208.539 148.58C212.044 148.433 214.973 148.813 215.512 149.478Z" fill="#8807F7"/>
    <path d="M216.447 147.641C216.495 148.76 212.948 149.826 208.53 150.011C204.112 150.196 200.476 149.446 200.428 148.322C200.381 147.198 203.928 146.137 208.345 145.947C212.763 145.757 216.41 146.517 216.447 147.641Z" fill="#8807F7"/>
    <path d="M216.383 145.611L200.342 146.292L200.428 148.322L216.47 147.641L216.383 145.611Z" fill="#8807F7"/>
    <path d="M216.367 145.61C216.414 146.734 212.862 147.795 208.449 147.979C204.037 148.164 200.39 147.415 200.342 146.29C200.295 145.166 203.847 144.105 208.259 143.921C212.672 143.736 216.319 144.485 216.367 145.61Z" fill="#8807F7"/>
    <path opacity="0.4" d="M216.367 145.61C216.414 146.734 212.862 147.795 208.449 147.979C204.037 148.164 200.39 147.415 200.342 146.29C200.295 145.166 203.847 144.105 208.259 143.921C212.672 143.736 216.319 144.485 216.367 145.61Z" fill="white"/>
    <path d="M215.353 145.572C215.357 145.646 215.332 145.718 215.284 145.773C214.756 145.113 211.816 144.717 208.311 144.876C204.807 145.034 201.909 145.662 201.45 146.364C201.403 146.309 201.373 146.241 201.365 146.169C201.334 145.409 204.437 144.649 208.306 144.485C212.175 144.321 215.321 144.812 215.353 145.572Z" fill="#8807F7"/>
    <path opacity="0.4" d="M215.353 145.572C215.357 145.646 215.332 145.718 215.284 145.773C214.756 145.113 211.816 144.717 208.311 144.876C204.807 145.034 201.909 145.662 201.45 146.364C201.403 146.309 201.373 146.241 201.365 146.169C201.334 145.409 204.437 144.649 208.306 144.485C212.175 144.321 215.321 144.812 215.353 145.572Z" fill="#8807F7"/>
    <path opacity="0.4" d="M215.277 145.773C214.802 146.475 211.91 147.114 208.416 147.262C204.922 147.409 201.971 147.024 201.443 146.364C201.913 145.662 204.8 145.024 208.305 144.876C211.81 144.728 214.744 145.119 215.277 145.773Z" fill="#8807F7"/>
    <path d="M218.164 144.59C218.211 145.715 214.659 146.775 210.246 146.965C205.834 147.155 202.187 146.395 202.139 145.271C202.092 144.147 205.644 143.086 210.056 142.901C214.469 142.717 218.116 143.44 218.164 144.59Z" fill="#8807F7"/>
    <path d="M218.063 142.539L202.021 143.22L202.108 145.25L218.149 144.57L218.063 142.539Z" fill="#8807F7"/>
    <path d="M218.062 142.532C218.109 143.657 214.557 144.718 210.145 144.908C205.732 145.098 202.085 144.338 202.037 143.213C201.99 142.089 205.542 141.028 209.955 140.843C214.367 140.659 218.035 141.424 218.062 142.532Z" fill="#8807F7"/>
    <path opacity="0.4" d="M218.062 142.532C218.109 143.657 214.557 144.718 210.145 144.908C205.732 145.098 202.085 144.338 202.037 143.213C201.99 142.089 205.542 141.028 209.955 140.843C214.367 140.659 218.035 141.424 218.062 142.532Z" fill="white"/>
    <path d="M217.03 142.48C217.028 142.55 217.004 142.619 216.961 142.675C216.433 142.015 213.488 141.619 209.989 141.778C206.489 141.936 203.581 142.564 203.127 143.266C203.075 143.213 203.044 143.144 203.037 143.071C203.006 142.311 206.109 141.551 209.978 141.387C213.847 141.223 216.993 141.741 217.03 142.48Z" fill="#8807F7"/>
    <path opacity="0.4" d="M217.03 142.48C217.028 142.55 217.004 142.619 216.961 142.675C216.433 142.015 213.488 141.619 209.989 141.778C206.489 141.936 203.581 142.564 203.127 143.266C203.075 143.213 203.044 143.144 203.037 143.071C203.006 142.311 206.109 141.551 209.978 141.387C213.847 141.223 216.993 141.741 217.03 142.48Z" fill="#8807F7"/>
    <path opacity="0.4" d="M216.973 142.696C216.492 143.403 213.605 144.037 210.111 144.185C206.617 144.332 203.661 143.947 203.139 143.287C203.603 142.585 206.496 141.947 210 141.799C213.505 141.651 216.445 142.036 216.973 142.696Z" fill="#8807F7"/>
    <path d="M215.574 141.952C215.622 143.076 212.07 144.137 207.657 144.327C203.245 144.517 199.561 143.762 199.561 142.638C199.561 141.514 203.065 140.453 207.478 140.268C211.89 140.083 215.527 140.838 215.574 141.952Z" fill="#8807F7"/>
    <path d="M215.508 139.922L199.467 140.603L199.553 142.633L215.595 141.953L215.508 139.922Z" fill="#8807F7"/>
    <path d="M215.492 139.924C215.539 141.049 211.987 142.11 207.574 142.3C203.162 142.49 199.515 141.73 199.467 140.605C199.42 139.481 202.972 138.42 207.384 138.235C211.797 138.051 215.444 138.784 215.492 139.924Z" fill="#8807F7"/>
    <path opacity="0.4" d="M215.492 139.924C215.539 141.049 211.987 142.11 207.574 142.3C203.162 142.49 199.515 141.73 199.467 140.605C199.42 139.481 202.972 138.42 207.384 138.235C211.797 138.051 215.444 138.784 215.492 139.924Z" fill="white"/>
    <path d="M214.47 139.893C214.473 139.964 214.448 140.034 214.401 140.088C213.873 139.428 210.933 139.033 207.429 139.191C203.924 139.349 201.026 139.977 200.567 140.679C200.517 140.626 200.487 140.557 200.483 140.484C200.451 139.724 203.555 138.964 207.423 138.8C211.292 138.637 214.438 139.133 214.47 139.893Z" fill="#8807F7"/>
    <path opacity="0.4" d="M214.47 139.893C214.473 139.964 214.448 140.034 214.401 140.088C213.873 139.428 210.933 139.033 207.429 139.191C203.924 139.349 201.026 139.977 200.567 140.679C200.517 140.626 200.487 140.557 200.483 140.484C200.451 139.724 203.555 138.964 207.423 138.8C211.292 138.637 214.438 139.133 214.47 139.893Z" fill="#8807F7"/>
    <path opacity="0.4" d="M214.395 140.088C213.914 140.795 211.027 141.429 207.533 141.577C204.039 141.724 201.088 141.339 200.561 140.679C201.03 139.977 203.917 139.344 207.422 139.191C210.927 139.038 213.856 139.428 214.395 140.088Z" fill="#8807F7"/>
    <path d="M217.268 138.88C217.315 140.004 213.763 141.065 209.35 141.255C204.938 141.445 201.296 140.685 201.249 139.561C201.201 138.436 204.748 137.375 209.166 137.191C213.584 137.006 217.215 137.761 217.268 138.88Z" fill="#8807F7"/>
    <path d="M217.196 136.856L201.154 137.536L201.241 139.567L217.282 138.886L217.196 136.856Z" fill="#8807F7"/>
    <path d="M217.179 136.848C217.227 137.972 213.675 139.033 209.262 139.223C204.85 139.413 201.202 138.653 201.155 137.528C201.107 136.404 204.66 135.349 209.072 135.159C213.485 134.969 217.132 135.729 217.179 136.848Z" fill="#8807F7"/>
    <path opacity="0.4" d="M217.179 136.848C217.227 137.972 213.675 139.033 209.262 139.223C204.85 139.413 201.202 138.653 201.155 137.528C201.107 136.404 204.66 135.349 209.072 135.159C213.485 134.969 217.132 135.729 217.179 136.848Z" fill="white"/>
    <path d="M216.165 136.816C216.167 136.889 216.143 136.96 216.096 137.017C215.569 136.357 212.629 135.961 209.124 136.114C205.619 136.267 202.722 136.901 202.262 137.603C202.214 137.548 202.185 137.48 202.178 137.407C202.146 136.647 205.25 135.887 209.119 135.724C212.988 135.56 216.133 136.056 216.165 136.816Z" fill="#8807F7"/>
    <path opacity="0.4" d="M216.165 136.816C216.167 136.889 216.143 136.96 216.096 137.017C215.569 136.357 212.629 135.961 209.124 136.114C205.619 136.267 202.722 136.901 202.262 137.603C202.214 137.548 202.185 137.48 202.178 137.407C202.146 136.647 205.25 135.887 209.119 135.724C212.988 135.56 216.133 136.056 216.165 136.816Z" fill="#8807F7"/>
    <path opacity="0.4" d="M216.09 137.016C215.615 137.718 212.722 138.352 209.228 138.499C205.734 138.647 202.784 138.262 202.256 137.602C202.726 136.9 205.613 136.267 209.117 136.114C212.622 135.961 215.557 136.356 216.09 137.016Z" fill="#8807F7"/>
    <path d="M210.572 136.58C214.312 135.178 216.207 131.01 214.805 127.271C213.403 123.532 209.235 121.637 205.495 123.038C201.756 124.44 199.861 128.608 201.263 132.348C202.665 136.087 206.833 137.982 210.572 136.58Z" fill="#8807F7"/>
    <path d="M214.346 134.853C216.935 131.812 216.568 127.248 213.526 124.659C210.485 122.071 205.921 122.438 203.333 125.48C200.745 128.521 201.112 133.085 204.153 135.673C207.194 138.261 211.758 137.894 214.346 134.853Z" fill="#8807F7"/>
    <path opacity="0.4" d="M214.346 134.853C216.935 131.812 216.568 127.248 213.526 124.659C210.485 122.071 205.921 122.438 203.333 125.48C200.745 128.521 201.112 133.085 204.153 135.673C207.194 138.261 211.758 137.894 214.346 134.853Z" fill="white"/>
    <path d="M213.762 132.393C213.318 133.367 212.596 134.187 211.687 134.75C210.777 135.314 209.721 135.595 208.652 135.558C207.583 135.521 206.549 135.169 205.68 134.544C204.811 133.92 204.147 133.052 203.772 132.05C203.396 131.048 203.326 129.958 203.571 128.916C203.815 127.875 204.362 126.929 205.144 126.199C205.926 125.468 206.906 124.986 207.962 124.813C209.018 124.639 210.101 124.783 211.075 125.225C212.381 125.82 213.398 126.909 213.902 128.253C214.405 129.597 214.355 131.086 213.762 132.393Z" fill="#8807F7"/>
    <path d="M276.999 171.097C276.835 171.757 274.598 171.762 272.001 171.097C269.404 170.432 267.43 169.382 267.593 168.727C267.757 168.073 270 168.062 272.597 168.727C275.194 169.393 277.157 170.453 276.999 171.097Z" fill="#8807F7"/>
    <path d="M267.891 167.555L267.592 168.748L276.997 171.104L277.296 169.911L267.891 167.555Z" fill="#8807F7"/>
    <path d="M277.288 169.926C277.119 170.585 274.881 170.591 272.285 169.926C269.688 169.26 267.719 168.215 267.883 167.556C268.046 166.896 270.284 166.891 272.881 167.556C275.478 168.221 277.452 169.25 277.288 169.926Z" fill="#8807F7"/>
    <path opacity="0.4" d="M277.288 169.926C277.119 170.585 274.881 170.591 272.285 169.926C269.688 169.26 267.719 168.215 267.883 167.556C268.046 166.896 270.284 166.891 272.881 167.556C275.478 168.221 277.452 169.25 277.288 169.926Z" fill="white"/>
    <path d="M276.713 169.709C276.708 169.731 276.7 169.752 276.687 169.77C276.674 169.788 276.658 169.803 276.639 169.815C276.444 169.34 274.813 168.611 272.76 168.1C270.706 167.588 268.917 167.456 268.537 167.783C268.527 167.741 268.527 167.698 268.537 167.656C268.653 167.208 270.58 167.303 272.849 167.867C275.119 168.432 276.829 169.266 276.713 169.709Z" fill="#8807F7"/>
    <path opacity="0.4" d="M276.713 169.709C276.708 169.731 276.7 169.752 276.687 169.77C276.674 169.788 276.658 169.803 276.639 169.815C276.444 169.34 274.813 168.611 272.76 168.1C270.706 167.588 268.917 167.456 268.537 167.783C268.527 167.741 268.527 167.698 268.537 167.656C268.653 167.208 270.58 167.303 272.849 167.867C275.119 168.432 276.829 169.266 276.713 169.709Z" fill="#8807F7"/>
    <path opacity="0.4" d="M276.629 169.815C276.233 170.137 274.454 170.01 272.406 169.498C270.358 168.986 268.711 168.252 268.521 167.783C268.917 167.455 270.696 167.582 272.744 168.099C274.792 168.617 276.439 169.34 276.629 169.815Z" fill="#8807F7"/>
    <path d="M281.504 173.261C281.536 173.936 279.393 174.58 276.711 174.691C274.03 174.802 271.845 174.348 271.819 173.672C271.792 172.997 273.93 172.353 276.611 172.237C279.292 172.121 281.478 172.564 281.504 173.261Z" fill="#8807F7"/>
    <path d="M281.443 172.044L271.756 172.455L271.808 173.684L281.495 173.272L281.443 172.044Z" fill="#8807F7"/>
    <path d="M281.465 172.037C281.497 172.718 279.354 173.356 276.678 173.472C274.002 173.588 271.811 173.129 271.78 172.448C271.748 171.768 273.891 171.129 276.572 171.018C279.253 170.907 281.439 171.356 281.465 172.037Z" fill="#8807F7"/>
    <path opacity="0.4" d="M281.465 172.037C281.497 172.718 279.354 173.356 276.678 173.472C274.002 173.588 271.811 173.129 271.78 172.448C271.748 171.768 273.891 171.129 276.572 171.018C279.253 170.907 281.439 171.356 281.465 172.037Z" fill="white"/>
    <path d="M280.839 172.037C280.841 172.059 280.839 172.081 280.831 172.102C280.824 172.123 280.812 172.142 280.797 172.158C280.475 171.762 278.686 171.525 276.574 171.63C274.463 171.736 272.706 172.106 272.421 172.528C272.391 172.496 272.374 172.455 272.373 172.412C272.373 171.952 274.226 171.493 276.564 171.393C278.902 171.293 280.839 171.551 280.839 172.037Z" fill="#8807F7"/>
    <path opacity="0.4" d="M280.839 172.037C280.841 172.059 280.839 172.081 280.831 172.102C280.824 172.123 280.812 172.142 280.797 172.158C280.475 171.762 278.686 171.525 276.574 171.63C274.463 171.736 272.706 172.106 272.421 172.528C272.391 172.496 272.374 172.455 272.373 172.412C272.373 171.952 274.226 171.493 276.564 171.393C278.902 171.293 280.839 171.551 280.839 172.037Z" fill="#8807F7"/>
    <path opacity="0.4" d="M280.799 172.132C280.514 172.554 278.767 172.939 276.65 173.029C274.534 173.119 272.76 172.887 272.428 172.501C272.713 172.079 274.46 171.694 276.582 171.604C278.703 171.514 280.477 171.736 280.799 172.132Z" fill="#8807F7"/>
    <path d="M276.423 170.843C278.615 167.504 277.685 163.021 274.346 160.83C271.008 158.638 266.525 159.568 264.333 162.907C262.142 166.245 263.072 170.728 266.41 172.92C269.749 175.111 274.232 174.181 276.423 170.843Z" fill="#8807F7"/>
    <path d="M276.417 172.29C275.465 173.358 274.218 174.119 272.834 174.478C271.449 174.838 269.989 174.778 268.639 174.307C267.288 173.837 266.107 172.976 265.246 171.835C264.384 170.693 263.881 169.321 263.799 167.893C263.717 166.466 264.06 165.045 264.786 163.813C265.511 162.58 266.585 161.59 267.873 160.968C269.161 160.346 270.605 160.12 272.021 160.318C273.437 160.516 274.763 161.13 275.831 162.082C277.262 163.358 278.127 165.15 278.237 167.065C278.347 168.979 277.692 170.859 276.417 172.29Z" fill="#8807F7"/>
    <path opacity="0.4" d="M276.417 172.29C275.465 173.358 274.218 174.119 272.834 174.478C271.449 174.838 269.989 174.778 268.639 174.307C267.288 173.837 266.107 172.976 265.246 171.835C264.384 170.693 263.881 169.321 263.799 167.893C263.717 166.466 264.06 165.045 264.786 163.813C265.511 162.58 266.585 161.59 267.873 160.968C269.161 160.346 270.605 160.12 272.021 160.318C273.437 160.516 274.763 161.13 275.831 162.082C277.262 163.358 278.127 165.15 278.237 167.065C278.347 168.979 277.692 170.859 276.417 172.29Z" fill="white"/>
    <path d="M275.051 171.081C274.338 171.881 273.404 172.452 272.367 172.721C271.331 172.99 270.237 172.945 269.226 172.593C268.214 172.241 267.33 171.596 266.684 170.741C266.039 169.886 265.662 168.858 265.601 167.789C265.539 166.719 265.797 165.656 266.34 164.733C266.883 163.809 267.688 163.068 268.653 162.602C269.618 162.137 270.699 161.967 271.76 162.116C272.82 162.265 273.813 162.725 274.613 163.438C275.144 163.911 275.576 164.484 275.886 165.124C276.195 165.764 276.375 166.459 276.416 167.169C276.457 167.879 276.357 168.59 276.123 169.261C275.888 169.932 275.524 170.551 275.051 171.081Z" fill="#8807F7"/>
    <path d="M181.498 173.932C181.472 174.607 183.61 175.251 186.291 175.362C188.972 175.473 191.157 175.019 191.184 174.343C191.21 173.668 189.072 173.024 186.396 172.908C183.72 172.791 181.53 173.251 181.498 173.932Z" fill="#8807F7"/>
    <path d="M181.574 172.707L181.521 173.936L191.209 174.347L191.261 173.118L181.574 172.707Z" fill="#8807F7"/>
    <path d="M181.545 172.702C181.514 173.382 183.657 174.021 186.338 174.137C189.019 174.253 191.204 173.794 191.231 173.113C191.257 172.432 189.119 171.794 186.438 171.683C183.757 171.572 181.572 172.037 181.545 172.702Z" fill="#8807F7"/>
    <path opacity="0.4" d="M181.545 172.702C181.514 173.382 183.657 174.021 186.338 174.137C189.019 174.253 191.204 173.794 191.231 173.113C191.257 172.432 189.119 171.794 186.438 171.683C183.757 171.572 181.572 172.037 181.545 172.702Z" fill="white"/>
    <path d="M182.178 172.681C182.178 172.725 182.193 172.767 182.22 172.802C182.542 172.406 184.331 172.169 186.442 172.274C188.554 172.38 190.306 172.749 190.591 173.177C190.621 173.143 190.64 173.101 190.644 173.056C190.644 172.596 188.786 172.137 186.453 172.042C184.12 171.947 182.199 172.222 182.178 172.681Z" fill="#8807F7"/>
    <path opacity="0.4" d="M182.178 172.681C182.178 172.725 182.193 172.767 182.22 172.802C182.542 172.406 184.331 172.169 186.442 172.274C188.554 172.38 190.306 172.749 190.591 173.177C190.621 173.143 190.64 173.101 190.644 173.056C190.644 172.596 188.786 172.137 186.453 172.042C184.12 171.947 182.199 172.222 182.178 172.681Z" fill="#8807F7"/>
    <path opacity="0.4" d="M182.217 172.802C182.507 173.23 184.249 173.61 186.365 173.7C188.482 173.789 190.261 173.557 190.588 173.172C190.303 172.744 188.561 172.364 186.439 172.269C184.317 172.174 182.539 172.406 182.217 172.802Z" fill="#8807F7"/>
    <path d="M180.482 172.074C180.482 172.75 182.594 173.394 185.275 173.504C187.956 173.615 190.141 173.161 190.168 172.486C190.194 171.81 188.057 171.166 185.381 171.05C182.705 170.934 180.514 171.398 180.482 172.074Z" fill="#8807F7"/>
    <path d="M180.535 170.833L180.482 172.062L190.17 172.473L190.222 171.244L180.535 170.833Z" fill="#8807F7"/>
    <path d="M180.553 170.844C180.553 171.525 182.664 172.164 185.345 172.28C188.027 172.396 190.212 171.937 190.238 171.256C190.264 170.575 188.127 169.936 185.451 169.825C182.775 169.715 180.553 170.169 180.553 170.844Z" fill="#8807F7"/>
    <path opacity="0.4" d="M180.553 170.844C180.553 171.525 182.664 172.164 185.345 172.28C188.027 172.396 190.212 171.937 190.238 171.256C190.264 170.575 188.127 169.936 185.451 169.825C182.775 169.715 180.553 170.169 180.553 170.844Z" fill="white"/>
    <path d="M181.146 170.823C181.147 170.867 181.162 170.909 181.189 170.944C181.511 170.548 183.3 170.316 185.411 170.416C187.522 170.517 189.275 170.886 189.56 171.314C189.59 171.28 189.608 171.237 189.613 171.192C189.613 170.738 187.755 170.274 185.422 170.179C183.089 170.084 181.168 170.364 181.146 170.823Z" fill="#8807F7"/>
    <path opacity="0.4" d="M181.146 170.823C181.147 170.867 181.162 170.909 181.189 170.944C181.511 170.548 183.3 170.316 185.411 170.416C187.522 170.517 189.275 170.886 189.56 171.314C189.59 171.28 189.608 171.237 189.613 171.192C189.613 170.738 187.755 170.274 185.422 170.179C183.089 170.084 181.168 170.364 181.146 170.823Z" fill="#8807F7"/>
    <path opacity="0.4" d="M181.193 170.944C181.484 171.372 183.225 171.752 185.342 171.841C187.458 171.931 189.237 171.699 189.564 171.314C189.279 170.886 187.538 170.506 185.416 170.416C183.294 170.327 181.515 170.548 181.193 170.944Z" fill="#8807F7"/>
    <path d="M180.615 169.836C180.615 170.512 182.726 171.156 185.408 171.267C188.089 171.377 190.274 170.923 190.301 170.248C190.327 169.572 188.189 168.928 185.513 168.812C182.837 168.696 180.647 169.161 180.615 169.836Z" fill="#8807F7"/>
    <path d="M180.652 168.595L180.6 169.824L190.287 170.235L190.339 169.006L180.652 168.595Z" fill="#8807F7"/>
    <path d="M180.662 168.606C180.662 169.287 182.773 169.925 185.455 170.041C188.136 170.157 190.321 169.698 190.347 169.017C190.374 168.336 188.236 167.698 185.56 167.587C182.884 167.476 180.694 167.93 180.662 168.606Z" fill="#8807F7"/>
    <path opacity="0.4" d="M180.662 168.606C180.662 169.287 182.773 169.925 185.455 170.041C188.136 170.157 190.321 169.698 190.347 169.017C190.374 168.336 188.236 167.698 185.56 167.587C182.884 167.476 180.694 167.93 180.662 168.606Z" fill="white"/>
    <path d="M181.287 168.585C181.287 168.629 181.302 168.671 181.329 168.706C181.651 168.31 183.441 168.078 185.552 168.178C187.663 168.278 189.415 168.648 189.7 169.075C189.731 169.042 189.749 168.999 189.753 168.954C189.753 168.5 187.895 168.036 185.562 167.941C183.229 167.846 181.308 168.131 181.287 168.585Z" fill="#8807F7"/>
    <path opacity="0.4" d="M181.287 168.585C181.287 168.629 181.302 168.671 181.329 168.706C181.651 168.31 183.441 168.078 185.552 168.178C187.663 168.278 189.415 168.648 189.7 169.075C189.731 169.042 189.749 168.999 189.753 168.954C189.753 168.5 187.895 168.036 185.562 167.941C183.229 167.846 181.308 168.131 181.287 168.585Z" fill="#8807F7"/>
    <path opacity="0.4" d="M181.334 168.706C181.624 169.134 183.366 169.514 185.483 169.604C187.599 169.693 189.378 169.461 189.705 169.076C189.42 168.648 187.678 168.268 185.556 168.179C183.435 168.089 181.656 168.31 181.334 168.706Z" fill="#8807F7"/>
    <path d="M179.608 167.978C179.608 168.653 181.719 169.297 184.4 169.408C187.081 169.519 189.267 169.065 189.298 168.389C189.33 167.714 187.187 167.07 184.506 166.954C181.824 166.837 179.639 167.286 179.608 167.978Z" fill="#8807F7"/>
    <path d="M179.66 166.742L179.608 167.971L189.295 168.382L189.347 167.153L179.66 166.742Z" fill="#8807F7"/>
    <path d="M179.655 166.759C179.628 167.44 181.766 168.078 184.447 168.195C187.128 168.311 189.314 167.851 189.34 167.171C189.366 166.49 187.229 165.856 184.553 165.74C181.877 165.624 179.686 166.073 179.655 166.759Z" fill="#8807F7"/>
    <path opacity="0.4" d="M179.655 166.759C179.628 167.44 181.766 168.078 184.447 168.195C187.128 168.311 189.314 167.851 189.34 167.171C189.366 166.49 187.229 165.856 184.553 165.74C181.877 165.624 179.686 166.073 179.655 166.759Z" fill="white"/>
    <path d="M180.264 166.727C180.264 166.771 180.279 166.814 180.306 166.849C180.633 166.453 182.417 166.22 184.528 166.321C186.64 166.421 188.397 166.79 188.677 167.218C188.708 167.187 188.727 167.146 188.73 167.102C188.73 166.643 186.872 166.178 184.539 166.083C182.206 165.988 180.285 166.273 180.264 166.727Z" fill="#8807F7"/>
    <path opacity="0.4" d="M180.264 166.727C180.264 166.771 180.279 166.814 180.306 166.849C180.633 166.453 182.417 166.22 184.528 166.321C186.64 166.421 188.397 166.79 188.677 167.218C188.708 167.187 188.727 167.146 188.73 167.102C188.73 166.643 186.872 166.178 184.539 166.083C182.206 165.988 180.285 166.273 180.264 166.727Z" fill="#8807F7"/>
    <path opacity="0.4" d="M180.311 166.848C180.601 167.276 182.343 167.656 184.459 167.746C186.576 167.835 188.354 167.603 188.682 167.218C188.402 166.79 186.655 166.41 184.533 166.321C182.411 166.231 180.638 166.453 180.311 166.848Z" fill="#8807F7"/>
    <path d="M181.147 166.405C181.115 167.081 183.258 167.725 185.939 167.836C188.621 167.947 190.806 167.493 190.832 166.817C190.859 166.141 188.721 165.498 186.04 165.381C183.358 165.265 181.173 165.703 181.147 166.405Z" fill="#8807F7"/>
    <path d="M181.199 165.162L181.146 166.391L190.834 166.802L190.886 165.573L181.199 165.162Z" fill="#8807F7"/>
    <path d="M181.194 165.175C181.162 165.856 183.305 166.494 185.981 166.61C188.657 166.727 190.847 166.267 190.879 165.586C190.911 164.906 188.768 164.267 186.087 164.156C183.405 164.045 181.22 164.499 181.194 165.175Z" fill="#8807F7"/>
    <path opacity="0.4" d="M181.194 165.175C181.162 165.856 183.305 166.494 185.981 166.61C188.657 166.727 190.847 166.267 190.879 165.586C190.911 164.906 188.768 164.267 186.087 164.156C183.405 164.045 181.22 164.499 181.194 165.175Z" fill="white"/>
    <path d="M181.827 165.175C181.825 165.197 181.827 165.219 181.835 165.24C181.842 165.261 181.854 165.28 181.869 165.296C182.191 164.9 183.98 164.663 186.092 164.768C188.203 164.874 189.961 165.243 190.246 165.666C190.275 165.634 190.292 165.593 190.293 165.55C190.293 165.09 188.44 164.631 186.102 164.531C183.764 164.431 181.843 164.695 181.827 165.175Z" fill="#8807F7"/>
    <path opacity="0.4" d="M181.827 165.175C181.825 165.197 181.827 165.219 181.835 165.24C181.842 165.261 181.854 165.28 181.869 165.296C182.191 164.9 183.98 164.663 186.092 164.768C188.203 164.874 189.961 165.243 190.246 165.666C190.275 165.634 190.292 165.593 190.293 165.55C190.293 165.09 188.44 164.631 186.102 164.531C183.764 164.431 181.843 164.695 181.827 165.175Z" fill="#8807F7"/>
    <path opacity="0.4" d="M181.857 165.276C182.142 165.698 183.89 166.083 186.006 166.173C188.123 166.263 189.896 166.03 190.229 165.645C189.944 165.223 188.196 164.838 186.075 164.748C183.953 164.658 182.179 164.88 181.857 165.276Z" fill="#8807F7"/>
    <path d="M174.312 173.821C174.476 174.481 176.719 174.486 179.316 173.821C181.913 173.156 183.881 172.111 183.718 171.451C183.554 170.791 181.316 170.786 178.719 171.451C176.123 172.116 174.149 173.166 174.312 173.821Z" fill="#8807F7"/>
    <path d="M183.427 170.273L174.021 172.629L174.32 173.822L183.726 171.466L183.427 170.273Z" fill="#8807F7"/>
    <path d="M174.032 172.633C174.195 173.288 176.433 173.298 179.03 172.633C181.627 171.968 183.601 170.923 183.432 170.269C183.263 169.614 181.03 169.604 178.434 170.269C175.837 170.934 173.863 171.974 174.032 172.633Z" fill="#8807F7"/>
    <path opacity="0.4" d="M174.032 172.633C174.195 173.288 176.433 173.298 179.03 172.633C181.627 171.968 183.601 170.923 183.432 170.269C183.263 169.614 181.03 169.604 178.434 170.269C175.837 170.934 173.863 171.974 174.032 172.633Z" fill="white"/>
    <path d="M174.62 172.438C174.632 172.48 174.658 172.515 174.694 172.539C174.889 172.069 176.52 171.34 178.579 170.823C180.637 170.306 182.416 170.179 182.801 170.507C182.817 170.466 182.817 170.421 182.801 170.38C182.691 169.936 180.759 170.026 178.494 170.596C176.23 171.166 174.509 171.99 174.62 172.438Z" fill="#8807F7"/>
    <path opacity="0.4" d="M174.62 172.438C174.632 172.48 174.658 172.515 174.694 172.539C174.889 172.069 176.52 171.34 178.579 170.823C180.637 170.306 182.416 170.179 182.801 170.507C182.817 170.466 182.817 170.421 182.801 170.38C182.691 169.936 180.759 170.026 178.494 170.596C176.23 171.166 174.509 171.99 174.62 172.438Z" fill="#8807F7"/>
    <path opacity="0.4" d="M174.701 172.565C175.097 172.892 176.881 172.765 178.924 172.248C180.966 171.731 182.618 171.007 182.808 170.532C182.413 170.205 180.634 170.337 178.586 170.849C176.538 171.361 174.896 172.068 174.701 172.565Z" fill="#8807F7"/>
    <path d="M169.826 173.932C169.826 174.607 171.937 175.251 174.619 175.362C177.3 175.473 179.485 175.019 179.512 174.343C179.538 173.668 177.4 173.024 174.724 172.908C172.048 172.791 169.858 173.251 169.826 173.932Z" fill="#8807F7"/>
    <path d="M169.871 172.691L169.818 173.92L179.506 174.331L179.558 173.102L169.871 172.691Z" fill="#8807F7"/>
    <path d="M169.881 172.702C169.855 173.382 171.992 174.021 174.674 174.137C177.355 174.253 179.54 173.794 179.566 173.113C179.593 172.432 177.455 171.794 174.779 171.683C172.103 171.572 169.913 172.037 169.881 172.702Z" fill="#8807F7"/>
    <path opacity="0.4" d="M169.881 172.702C169.855 173.382 171.992 174.021 174.674 174.137C177.355 174.253 179.54 173.794 179.566 173.113C179.593 172.432 177.455 171.794 174.779 171.683C172.103 171.572 169.913 172.037 169.881 172.702Z" fill="white"/>
    <path d="M170.514 172.681C170.514 172.725 170.529 172.767 170.556 172.802C170.878 172.406 172.667 172.169 174.778 172.274C176.89 172.38 178.642 172.749 178.927 173.177C178.957 173.143 178.976 173.101 178.98 173.056C178.98 172.596 177.122 172.137 174.789 172.042C172.456 171.947 170.545 172.222 170.514 172.681Z" fill="#8807F7"/>
    <path opacity="0.4" d="M170.514 172.681C170.514 172.725 170.529 172.767 170.556 172.802C170.878 172.406 172.667 172.169 174.778 172.274C176.89 172.38 178.642 172.749 178.927 173.177C178.957 173.143 178.976 173.101 178.98 173.056C178.98 172.596 177.122 172.137 174.789 172.042C172.456 171.947 170.545 172.222 170.514 172.681Z" fill="#8807F7"/>
    <path opacity="0.4" d="M170.537 172.802C170.827 173.23 172.569 173.61 174.686 173.7C176.802 173.789 178.581 173.557 178.908 173.172C178.623 172.744 176.881 172.364 174.76 172.269C172.638 172.174 170.87 172.406 170.537 172.802Z" fill="#8807F7"/>
    <path d="M219.866 173.874C219.834 174.571 222.04 175.23 224.79 175.347C227.54 175.463 229.794 174.993 229.825 174.291C229.857 173.589 227.646 172.94 224.896 172.818C222.146 172.697 219.892 173.177 219.866 173.874Z" fill="#8807F7"/>
    <path d="M219.903 172.596L219.85 173.856L229.811 174.279L229.865 173.019L219.903 172.596Z" fill="#8807F7"/>
    <path d="M219.92 172.612C219.889 173.309 222.095 173.969 224.845 174.085C227.595 174.201 229.848 173.731 229.88 173.029C229.912 172.327 227.705 171.678 224.95 171.557C222.195 171.435 219.947 171.916 219.92 172.612Z" fill="#8807F7"/>
    <path opacity="0.4" d="M219.92 172.612C219.889 173.309 222.095 173.969 224.845 174.085C227.595 174.201 229.848 173.731 229.88 173.029C229.912 172.327 227.705 171.678 224.95 171.557C222.195 171.435 219.947 171.916 219.92 172.612Z" fill="white"/>
    <path d="M220.545 172.591C220.546 172.637 220.561 172.681 220.587 172.718C220.92 172.306 222.741 172.069 224.92 172.158C227.1 172.248 228.895 172.644 229.185 173.082C229.218 173.05 229.237 173.006 229.238 172.961C229.238 172.491 227.333 172.016 224.931 171.905C222.529 171.794 220.566 172.121 220.545 172.591Z" fill="#8807F7"/>
    <path opacity="0.4" d="M220.545 172.591C220.546 172.637 220.561 172.681 220.587 172.718C220.92 172.306 222.741 172.069 224.92 172.158C227.1 172.248 228.895 172.644 229.185 173.082C229.218 173.05 229.237 173.006 229.238 172.961C229.238 172.491 227.333 172.016 224.931 171.905C222.529 171.794 220.566 172.121 220.545 172.591Z" fill="#8807F7"/>
    <path opacity="0.4" d="M220.6 172.718C220.9 173.151 222.711 173.546 224.87 173.641C227.028 173.736 228.87 173.494 229.198 173.082C228.907 172.644 227.113 172.253 224.933 172.158C222.753 172.063 220.932 172.306 220.6 172.718Z" fill="#8807F7"/>
    <path d="M218.811 171.963C218.784 172.66 220.991 173.32 223.74 173.441C226.49 173.563 228.744 173.088 228.77 172.386C228.797 171.684 226.596 171.029 223.846 170.908C221.096 170.786 218.842 171.267 218.811 171.963Z" fill="#8807F7"/>
    <path d="M218.864 170.698L218.81 171.959L228.772 172.381L228.825 171.121L218.864 170.698Z" fill="#8807F7"/>
    <path d="M218.858 170.702C218.826 171.398 221.032 172.058 223.782 172.179C226.532 172.301 228.786 171.826 228.817 171.124C228.849 170.422 226.638 169.767 223.888 169.646C221.138 169.525 218.884 170.005 218.858 170.702Z" fill="#8807F7"/>
    <path opacity="0.4" d="M218.858 170.702C218.826 171.398 221.032 172.058 223.782 172.179C226.532 172.301 228.786 171.826 228.817 171.124C228.849 170.422 226.638 169.767 223.888 169.646C221.138 169.525 218.884 170.005 218.858 170.702Z" fill="white"/>
    <path d="M219.514 170.68C219.515 170.726 219.529 170.77 219.556 170.807C219.888 170.395 221.709 170.158 223.884 170.247C226.059 170.337 227.864 170.733 228.154 171.171C228.184 171.137 228.203 171.095 228.207 171.05C228.207 170.58 226.296 170.105 223.895 169.994C221.493 169.883 219.535 170.21 219.514 170.68Z" fill="#8807F7"/>
    <path opacity="0.4" d="M219.514 170.68C219.515 170.726 219.529 170.77 219.556 170.807C219.888 170.395 221.709 170.158 223.884 170.247C226.059 170.337 227.864 170.733 228.154 171.171C228.184 171.137 228.203 171.095 228.207 171.05C228.207 170.58 226.296 170.105 223.895 169.994C221.493 169.883 219.535 170.21 219.514 170.68Z" fill="#8807F7"/>
    <path opacity="0.4" d="M219.552 170.807C219.848 171.24 221.664 171.636 223.817 171.731C225.971 171.826 227.823 171.583 228.151 171.171C227.86 170.733 226.066 170.342 223.881 170.247C221.695 170.152 219.885 170.395 219.552 170.807Z" fill="#8807F7"/>
    <path d="M221.069 170.554C221.037 171.245 223.243 171.905 225.993 172.026C228.743 172.148 230.997 171.673 231.029 170.971C231.06 170.269 228.849 169.614 226.099 169.498C223.349 169.382 221.095 169.857 221.069 170.554Z" fill="#8807F7"/>
    <path d="M221.114 169.278L221.061 170.539L231.022 170.962L231.075 169.701L221.114 169.278Z" fill="#8807F7"/>
    <path d="M221.123 169.287C221.092 169.984 223.298 170.644 226.048 170.765C228.798 170.887 231.052 170.412 231.083 169.71C231.115 169.008 228.903 168.353 226.153 168.237C223.404 168.121 221.15 168.596 221.123 169.287Z" fill="#8807F7"/>
    <path opacity="0.4" d="M221.123 169.287C221.092 169.984 223.298 170.644 226.048 170.765C228.798 170.887 231.052 170.412 231.083 169.71C231.115 169.008 228.903 168.353 226.153 168.237C223.404 168.121 221.15 168.596 221.123 169.287Z" fill="white"/>
    <path d="M221.717 169.266C221.718 169.311 221.733 169.356 221.759 169.393C222.092 168.981 223.912 168.743 226.087 168.833C228.262 168.923 230.067 169.319 230.357 169.757C230.387 169.723 230.406 169.68 230.41 169.635C230.41 169.166 228.499 168.691 226.098 168.58C223.696 168.469 221.754 168.796 221.717 169.266Z" fill="#8807F7"/>
    <path opacity="0.4" d="M221.717 169.266C221.718 169.311 221.733 169.356 221.759 169.393C222.092 168.981 223.912 168.743 226.087 168.833C228.262 168.923 230.067 169.319 230.357 169.757C230.387 169.723 230.406 169.68 230.41 169.635C230.41 169.166 228.499 168.691 226.098 168.58C223.696 168.469 221.754 168.796 221.717 169.266Z" fill="#8807F7"/>
    <path opacity="0.4" d="M221.787 169.397C222.083 169.836 223.898 170.226 226.052 170.321C228.205 170.416 230.058 170.173 230.385 169.762C230.095 169.324 228.3 168.933 226.115 168.838C223.93 168.743 222.12 168.98 221.787 169.397Z" fill="#8807F7"/>
    <path d="M221.1 168.643C221.068 169.339 223.275 169.999 226.024 170.115C228.774 170.231 231.028 169.762 231.06 169.06C231.091 168.358 228.88 167.703 226.13 167.587C223.38 167.471 221.126 167.946 221.1 168.643Z" fill="#8807F7"/>
    <path d="M220.947 166.729L220.896 167.99L230.867 168.389L230.917 167.128L220.947 166.729Z" fill="#8807F7"/>
    <path d="M221.147 167.382C221.115 168.079 223.321 168.738 226.071 168.855C228.821 168.971 231.075 168.501 231.107 167.799C231.138 167.097 228.927 166.442 226.177 166.326C223.427 166.21 221.173 166.685 221.147 167.382Z" fill="#8807F7"/>
    <path opacity="0.4" d="M221.147 167.382C221.115 168.079 223.321 168.738 226.071 168.855C228.821 168.971 231.075 168.501 231.107 167.799C231.138 167.097 228.927 166.442 226.177 166.326C223.427 166.21 221.173 166.685 221.147 167.382Z" fill="white"/>
    <path d="M221.771 167.361C221.773 167.404 221.787 167.447 221.814 167.482C222.146 167.07 223.967 166.833 226.142 166.922C228.316 167.012 230.121 167.413 230.412 167.846C230.444 167.814 230.463 167.77 230.465 167.725C230.465 167.255 228.559 166.78 226.152 166.669C223.746 166.558 221.793 166.886 221.771 167.361Z" fill="#8807F7"/>
    <path opacity="0.4" d="M221.771 167.361C221.773 167.404 221.787 167.447 221.814 167.482C222.146 167.07 223.967 166.833 226.142 166.922C228.316 167.012 230.121 167.413 230.412 167.846C230.444 167.814 230.463 167.77 230.465 167.725C230.465 167.255 228.559 166.78 226.152 166.669C223.746 166.558 221.793 166.886 221.771 167.361Z" fill="#8807F7"/>
    <path opacity="0.4" d="M221.834 167.482C222.13 167.92 223.945 168.311 226.104 168.406C228.263 168.501 230.105 168.258 230.432 167.846C230.142 167.413 228.347 167.017 226.162 166.922C223.977 166.827 222.167 167.07 221.834 167.482Z" fill="#8807F7"/>
    <path d="M219.045 167.081C219.014 167.778 221.22 168.437 223.97 168.554C226.72 168.67 228.973 168.2 229.005 167.498C229.037 166.796 226.831 166.141 224.081 166.025C221.331 165.909 219.098 166.384 219.045 167.081Z" fill="#8807F7"/>
    <path d="M219.114 165.831L219.061 167.092L229.022 167.516L229.076 166.256L219.114 165.831Z" fill="#8807F7"/>
    <path d="M219.108 165.819C219.076 166.516 221.282 167.176 224.032 167.292C226.782 167.408 229.036 166.938 229.068 166.236C229.099 165.534 226.893 164.88 224.143 164.764C221.393 164.647 219.139 165.122 219.108 165.819Z" fill="#8807F7"/>
    <path opacity="0.4" d="M219.108 165.819C219.076 166.516 221.282 167.176 224.032 167.292C226.782 167.408 229.036 166.938 229.068 166.236C229.099 165.534 226.893 164.88 224.143 164.764C221.393 164.647 219.139 165.122 219.108 165.819Z" fill="white"/>
    <path d="M219.74 165.798C219.741 165.842 219.756 165.884 219.782 165.92C220.12 165.513 221.941 165.27 224.116 165.365C226.29 165.46 228.09 165.851 228.381 166.284C228.413 166.253 228.432 166.212 228.433 166.168C228.433 165.693 226.528 165.223 224.126 165.112C221.725 165.001 219.761 165.323 219.74 165.798Z" fill="#8807F7"/>
    <path opacity="0.4" d="M219.74 165.798C219.741 165.842 219.756 165.884 219.782 165.92C220.12 165.513 221.941 165.27 224.116 165.365C226.29 165.46 228.09 165.851 228.381 166.284C228.413 166.253 228.432 166.212 228.433 166.168C228.433 165.693 226.528 165.223 224.126 165.112C221.725 165.001 219.761 165.323 219.74 165.798Z" fill="#8807F7"/>
    <path opacity="0.4" d="M219.756 165.92C220.057 166.358 221.867 166.754 224.026 166.843C226.185 166.933 228.027 166.696 228.354 166.284C228.064 165.851 226.269 165.455 224.089 165.366C221.909 165.276 220.094 165.513 219.756 165.92Z" fill="#8807F7"/>
    <path d="M231.889 170.881C231.599 171.498 233.33 172.918 235.753 174.047C238.175 175.177 240.376 175.631 240.661 174.998C240.946 174.364 239.221 172.965 236.798 171.831C234.375 170.696 232.174 170.268 231.889 170.881Z" fill="#8807F7"/>
    <path d="M232.427 169.788L231.904 170.901L240.68 175.025L241.203 173.912L232.427 169.788Z" fill="#8807F7"/>
    <path d="M232.42 169.773C232.13 170.385 233.861 171.805 236.284 172.94C238.707 174.074 240.908 174.523 241.193 173.89C241.478 173.256 239.752 171.852 237.329 170.723C234.906 169.593 232.705 169.155 232.42 169.773Z" fill="#8807F7"/>
    <path opacity="0.4" d="M232.42 169.773C232.13 170.385 233.861 171.805 236.284 172.94C238.707 174.074 240.908 174.523 241.193 173.89C241.478 173.256 239.752 171.852 237.329 170.723C234.906 169.593 232.705 169.155 232.42 169.773Z" fill="white"/>
    <path d="M232.987 169.989C232.971 170.03 232.971 170.075 232.987 170.116C233.435 169.878 235.161 170.343 237.077 171.245C238.993 172.148 240.46 173.177 240.561 173.679C240.6 173.66 240.632 173.628 240.65 173.589C240.846 173.172 239.294 172.005 237.177 171.029C235.061 170.052 233.182 169.577 232.987 169.989Z" fill="#8807F7"/>
    <path opacity="0.4" d="M232.987 169.989C232.971 170.03 232.971 170.075 232.987 170.116C233.435 169.878 235.161 170.343 237.077 171.245C238.993 172.148 240.46 173.177 240.561 173.679C240.6 173.66 240.632 173.628 240.65 173.589C240.846 173.172 239.294 172.005 237.177 171.029C235.061 170.052 233.182 169.577 232.987 169.989Z" fill="#8807F7"/>
    <path opacity="0.4" d="M232.975 170.116C233.075 170.643 234.558 171.646 236.453 172.549C238.348 173.451 240.1 173.921 240.549 173.678C240.448 173.177 238.965 172.148 237.065 171.245C235.165 170.343 233.423 169.878 232.975 170.116Z" fill="#8807F7"/>
    <path d="M226.811 173.061C226.784 173.737 228.922 174.375 231.603 174.492C234.285 174.608 236.47 174.148 236.501 173.473C236.533 172.797 234.39 172.153 231.709 172.037C229.028 171.921 226.842 172.38 226.811 173.061Z" fill="#8807F7"/>
    <path d="M226.847 171.814L226.795 173.043L236.482 173.454L236.534 172.225L226.847 171.814Z" fill="#8807F7"/>
    <path d="M226.85 171.831C226.85 172.507 228.961 173.151 231.642 173.267C234.323 173.383 236.509 172.919 236.535 172.243C236.561 171.567 234.424 170.923 231.748 170.813C229.072 170.702 226.881 171.156 226.85 171.831Z" fill="#8807F7"/>
    <path opacity="0.4" d="M226.85 171.831C226.85 172.507 228.961 173.151 231.642 173.267C234.323 173.383 236.509 172.919 236.535 172.243C236.561 171.567 234.424 170.923 231.748 170.813C229.072 170.702 226.881 171.156 226.85 171.831Z" fill="white"/>
    <path d="M227.475 171.81C227.475 171.854 227.49 171.897 227.517 171.931C227.844 171.53 229.628 171.298 231.739 171.404C233.851 171.509 235.608 171.879 235.888 172.301C235.92 172.271 235.939 172.229 235.941 172.185C235.941 171.726 234.083 171.266 231.75 171.166C229.417 171.066 227.496 171.351 227.475 171.81Z" fill="#8807F7"/>
    <path opacity="0.4" d="M227.475 171.81C227.475 171.854 227.49 171.897 227.517 171.931C227.844 171.53 229.628 171.298 231.739 171.404C233.851 171.509 235.608 171.879 235.888 172.301C235.92 172.271 235.939 172.229 235.941 172.185C235.941 171.726 234.083 171.266 231.75 171.166C229.417 171.066 227.496 171.351 227.475 171.81Z" fill="#8807F7"/>
    <path opacity="0.4" d="M227.553 171.931C227.843 172.353 229.585 172.738 231.701 172.828C233.818 172.918 235.597 172.686 235.924 172.3C235.644 171.878 233.897 171.493 231.775 171.403C229.653 171.313 227.859 171.509 227.553 171.931Z" fill="#8807F7"/>
    <path d="M157.525 147.685C157.527 148.136 157.527 148.588 157.528 149.039C157.529 149.429 157.401 149.808 157.041 150.007C156.618 150.237 156.019 150.179 155.548 150.131C155.53 150.129 155.514 150.127 155.497 150.126C155.513 149.801 155.507 149.473 155.491 149.149C155.471 148.71 155.738 148.186 156.209 148.112C156.721 148.031 157.166 147.977 157.407 147.694C157.416 147.686 157.423 147.678 157.43 147.668C157.465 147.62 157.503 147.573 157.541 147.526C157.53 147.577 157.525 147.631 157.525 147.685Z" fill="#B86AFA"/>
    <path d="M155.982 153.071C156.335 153.093 156.69 153.088 157.043 153.094C157.455 153.101 157.876 153.152 158.273 153.08C158.844 152.976 159.485 152.604 159.697 152.053C159.893 151.542 159.801 150.933 159.463 150.504C159.439 150.475 159.414 150.446 159.387 150.418C159.045 150.044 158.514 149.849 158.011 149.916C157.383 149.999 156.831 150.492 156.668 151.103C156.567 151.484 156.655 151.889 156.596 152.277C156.547 152.599 156.273 152.928 155.982 153.071Z" fill="#B86AFA"/>
    <path d="M159.499 146.229C159.467 146.324 159.505 146.428 159.546 146.52C160.069 147.687 161.471 148.476 161.423 149.877C161.401 150.51 161.085 151.255 160.556 151.631C160.517 151.658 160.482 151.682 160.437 151.695C160.337 151.506 160.326 151.23 160.24 151.021C160.132 150.76 159.99 150.503 159.791 150.301C159.601 150.108 159.362 149.996 159.172 149.806C158.772 149.407 158.52 148.859 158.486 148.294C158.438 147.488 158.841 146.689 159.499 146.229Z" fill="#B86AFA"/>
    <path d="M155.842 149.042C155.842 149.042 155.824 148.69 156.184 148.708C156.185 148.708 156.316 149.093 155.842 149.042Z" fill="#8807F7" stroke="#B86AFA" stroke-width="0.117933" stroke-miterlimit="10"/>
    <path d="M155.743 152.019C156.073 152.019 156.34 151.752 156.34 151.422C156.34 151.092 156.073 150.825 155.743 150.825C155.414 150.825 155.146 151.092 155.146 151.422C155.146 151.752 155.414 152.019 155.743 152.019Z" fill="#B86AFA"/>
    <path d="M208.166 128.13C208.167 128.582 208.167 129.033 208.168 129.485C208.17 129.874 208.042 130.253 207.681 130.452C207.259 130.683 206.66 130.625 206.189 130.576C206.171 130.575 206.154 130.572 206.138 130.571C206.153 130.246 206.147 129.918 206.132 129.594C206.112 129.155 206.378 128.632 206.849 128.557C207.361 128.477 207.806 128.422 208.048 128.14C208.056 128.131 208.063 128.123 208.07 128.113C208.106 128.065 208.144 128.019 208.182 127.972C208.17 128.023 208.166 128.077 208.166 128.13Z" fill="#B86AFA"/>
    <path d="M206.623 133.516C206.976 133.539 207.33 133.533 207.683 133.539C208.095 133.546 208.516 133.597 208.914 133.525C209.484 133.421 210.126 133.049 210.338 132.498C210.534 131.988 210.441 131.378 210.103 130.95C210.079 130.92 210.054 130.892 210.027 130.863C209.685 130.489 209.155 130.294 208.651 130.361C208.024 130.444 207.472 130.937 207.309 131.548C207.208 131.929 207.296 132.335 207.237 132.723C207.188 133.044 206.914 133.374 206.623 133.516Z" fill="#B86AFA"/>
    <path d="M210.139 126.674C210.108 126.77 210.146 126.874 210.187 126.966C210.71 128.132 212.112 128.921 212.064 130.322C212.042 130.956 211.725 131.701 211.197 132.076C211.158 132.104 211.123 132.128 211.078 132.14C210.977 131.952 210.966 131.675 210.88 131.467C210.773 131.206 210.631 130.949 210.432 130.747C210.241 130.553 210.003 130.442 209.812 130.252C209.412 129.852 209.16 129.305 209.127 128.74C209.078 127.934 209.481 127.135 210.139 126.674Z" fill="#B86AFA"/>
    <path d="M206.483 129.488C206.483 129.488 206.464 129.135 206.825 129.153C206.825 129.153 206.957 129.538 206.483 129.488Z" fill="#8807F7" stroke="#B86AFA" stroke-width="0.117933" stroke-miterlimit="10"/>
    <path d="M206.384 132.464C206.714 132.464 206.981 132.197 206.981 131.867C206.981 131.538 206.714 131.271 206.384 131.271C206.054 131.271 205.787 131.538 205.787 131.867C205.787 132.197 206.054 132.464 206.384 132.464Z" fill="#B86AFA"/>
    <path d="M270.299 165.098C270.3 165.549 270.3 166.001 270.301 166.453C270.302 166.842 270.175 167.221 269.814 167.42C269.392 167.651 268.793 167.592 268.322 167.544C268.304 167.543 268.287 167.54 268.271 167.539C268.286 167.214 268.28 166.886 268.265 166.562C268.245 166.123 268.511 165.599 268.982 165.525C269.494 165.444 269.939 165.39 270.181 165.107C270.189 165.099 270.196 165.091 270.203 165.081C270.239 165.033 270.277 164.986 270.315 164.939C270.303 164.99 270.299 165.044 270.299 165.098Z" fill="#B86AFA"/>
    <path d="M268.756 170.484C269.108 170.506 269.463 170.501 269.816 170.507C270.228 170.514 270.649 170.565 271.047 170.493C271.617 170.389 272.259 170.017 272.47 169.465C272.667 168.955 272.574 168.346 272.236 167.917C272.212 167.888 272.187 167.859 272.16 167.831C271.818 167.457 271.288 167.262 270.784 167.329C270.157 167.412 269.604 167.905 269.442 168.515C269.34 168.896 269.429 169.302 269.369 169.69C269.321 170.012 269.047 170.341 268.756 170.484Z" fill="#B86AFA"/>
    <path d="M272.272 163.642C272.241 163.737 272.279 163.841 272.32 163.933C272.842 165.1 274.245 165.889 274.196 167.29C274.174 167.924 273.858 168.668 273.33 169.044C273.291 169.071 273.256 169.095 273.211 169.108C273.11 168.919 273.099 168.643 273.013 168.434C272.906 168.173 272.763 167.916 272.565 167.714C272.374 167.521 272.136 167.409 271.945 167.219C271.545 166.82 271.293 166.272 271.26 165.707C271.211 164.902 271.614 164.102 272.272 163.642Z" fill="#B86AFA"/>
    <path d="M268.615 166.455C268.615 166.455 268.597 166.103 268.958 166.121C268.958 166.121 269.089 166.506 268.615 166.455Z" fill="#8807F7" stroke="#B86AFA" stroke-width="0.117933" stroke-miterlimit="10"/>
    <path d="M268.517 169.432C268.847 169.432 269.114 169.165 269.114 168.835C269.114 168.505 268.847 168.238 268.517 168.238C268.187 168.238 267.92 168.505 267.92 168.835C267.92 169.165 268.187 169.432 268.517 169.432Z" fill="#B86AFA"/>
    <path d="M36.798 57.1167V50.3167L36.678 48.2167H36.898L37.678 50.3167L40.478 56.3167H44.118L46.918 50.3167L47.698 48.2167H47.918L47.818 50.3167V57.1167H50.818V43.7167H46.738L43.698 50.3167L42.478 53.4567H42.258L40.998 50.3167L37.858 43.7167H33.798V57.1167H36.798ZM57.7318 57.3167C61.1518 57.3167 63.4518 55.2767 63.4518 52.1167C63.4518 48.9167 61.1518 46.8967 57.7318 46.8967C54.3118 46.8967 52.0118 48.9167 52.0118 52.1167C52.0118 55.2767 54.3118 57.3167 57.7318 57.3167ZM57.7318 54.6567C55.6918 54.6567 54.9918 53.8767 54.9918 52.1167C54.9918 50.3567 55.6918 49.5367 57.7318 49.5367C59.7518 49.5367 60.4718 50.3567 60.4718 52.1167C60.4718 53.8767 59.7518 54.6567 57.7318 54.6567ZM67.677 57.1167V51.3167C67.677 50.0567 68.157 49.4367 69.497 49.4367C70.717 49.4367 71.157 49.9167 71.157 51.0167V52.0567H74.157V50.3967C74.157 48.4367 73.237 46.8967 70.997 46.8967C68.977 46.8967 67.917 48.1367 67.637 49.7567H67.457V47.0967H64.677V57.1167H67.677ZM80.5634 57.3167C83.7434 57.3167 85.8634 55.7967 85.8634 53.6167V53.3967H82.8634V53.5967C82.8634 54.4567 82.2434 54.9167 80.4634 54.9167C78.5234 54.9167 77.8034 54.2567 77.7234 52.7167H85.8834C85.9234 52.3767 85.9634 52.1167 85.9634 51.7567C85.9634 48.6167 83.7834 46.8967 80.5034 46.8967C77.2034 46.8967 74.9434 48.9167 74.9434 52.1167C74.9434 55.6767 77.2234 57.3167 80.5634 57.3167ZM80.4434 49.2367C82.2034 49.2367 83.0034 49.8167 83.0834 51.1367H77.7634C77.9034 49.8367 78.6634 49.2367 80.4434 49.2367ZM93.3215 46.0767V43.7167H90.3215V46.0767H93.3215ZM93.3215 57.1167V47.0967H90.3215V57.1167H93.3215ZM97.8918 57.1167V52.0567C97.8918 50.3567 98.5718 49.5967 100.472 49.5967C102.312 49.5967 102.972 50.2767 102.972 51.8767V57.1167H105.972V50.8767C105.972 48.6567 104.672 46.8967 101.932 46.8967C99.3118 46.8967 98.1118 48.4967 97.8518 50.1767H97.6718V47.0967H94.8918V57.1167H97.8918ZM114.949 57.1167L119.529 47.0967H116.249L113.229 54.1967H113.029L110.029 47.0967H106.689L111.249 57.1167H114.949ZM125.641 57.3167C128.821 57.3167 130.941 55.7967 130.941 53.6167V53.3967H127.941V53.5967C127.941 54.4567 127.321 54.9167 125.541 54.9167C123.601 54.9167 122.881 54.2567 122.801 52.7167H130.961C131.001 52.3767 131.041 52.1167 131.041 51.7567C131.041 48.6167 128.861 46.8967 125.581 46.8967C122.281 46.8967 120.021 48.9167 120.021 52.1167C120.021 55.6767 122.301 57.3167 125.641 57.3167ZM125.521 49.2367C127.281 49.2367 128.081 49.8167 128.161 51.1367H122.841C122.981 49.8367 123.741 49.2367 125.521 49.2367ZM137.374 57.3167C140.474 57.3167 142.334 56.0767 142.334 54.1967C142.334 52.5367 141.334 51.6367 138.654 51.3367L136.514 51.0767C135.194 50.9167 134.914 50.6967 134.914 50.1767C134.914 49.5367 135.294 49.2767 136.794 49.2767C138.634 49.2767 139.034 49.6967 139.034 50.5167V50.6367H142.034V50.5767C142.034 48.1367 140.174 46.8967 136.894 46.8967C133.454 46.8967 131.954 48.2967 131.954 50.0567C131.954 51.7367 133.074 52.6367 135.074 52.8567L137.894 53.1967C139.074 53.3567 139.374 53.5167 139.374 54.0767C139.374 54.6767 138.994 54.9367 137.394 54.9367C135.694 54.9367 135.134 54.6967 135.134 53.7967V53.6167H132.134V53.6767C132.134 55.9967 133.994 57.3167 137.374 57.3167ZM150.604 57.1167V54.4167H148.804C147.744 54.4167 147.364 54.1567 147.364 53.1567V49.5767H150.604V47.0967H147.364V45.1567H144.364V47.0967H142.784V49.5767H144.364V53.4967C144.364 56.0167 145.784 57.1167 148.124 57.1167H150.604ZM154.728 57.1167V52.0567C154.728 50.3167 155.248 49.5967 157.068 49.5967C158.788 49.5967 159.368 50.2167 159.368 51.8767V57.1167H162.368V52.0567C162.368 50.3167 162.888 49.5967 164.708 49.5967C166.428 49.5967 167.008 50.2167 167.008 51.8767V57.1167H170.008V50.8767C170.008 48.5967 168.748 46.8967 166.168 46.8967C163.588 46.8967 162.568 48.4767 162.328 50.1767H162.148C161.928 48.3167 160.748 46.8967 158.428 46.8967C155.908 46.8967 154.908 48.4567 154.668 50.1367H154.508V47.0967H151.728V57.1167H154.728ZM176.852 57.3167C180.032 57.3167 182.152 55.7967 182.152 53.6167V53.3967H179.152V53.5967C179.152 54.4567 178.532 54.9167 176.752 54.9167C174.812 54.9167 174.092 54.2567 174.012 52.7167H182.172C182.212 52.3767 182.252 52.1167 182.252 51.7567C182.252 48.6167 180.072 46.8967 176.792 46.8967C173.492 46.8967 171.232 48.9167 171.232 52.1167C171.232 55.6767 173.512 57.3167 176.852 57.3167ZM176.732 49.2367C178.492 49.2367 179.292 49.8167 179.372 51.1367H174.052C174.192 49.8367 174.952 49.2367 176.732 49.2367ZM186.525 57.1167V52.0567C186.525 50.3567 187.205 49.5967 189.105 49.5967C190.945 49.5967 191.605 50.2767 191.605 51.8767V57.1167H194.605V50.8767C194.605 48.6567 193.305 46.8967 190.565 46.8967C187.945 46.8967 186.745 48.4967 186.485 50.1767H186.305V47.0967H183.525V57.1167H186.525ZM203.182 57.1167V54.4167H201.382C200.322 54.4167 199.942 54.1567 199.942 53.1567V49.5767H203.182V47.0967H199.942V45.1567H196.942V47.0967H195.362V49.5767H196.942V53.4967C196.942 56.0167 198.362 57.1167 200.702 57.1167H203.182ZM39.138 82.3167C42.558 82.3167 44.858 80.2767 44.858 77.1167C44.858 73.9167 42.558 71.8967 39.138 71.8967C35.718 71.8967 33.418 73.9167 33.418 77.1167C33.418 80.2767 35.718 82.3167 39.138 82.3167ZM39.138 79.6567C37.098 79.6567 36.398 78.8767 36.398 77.1167C36.398 75.3567 37.098 74.5367 39.138 74.5367C41.158 74.5367 41.878 75.3567 41.878 77.1167C41.878 78.8767 41.158 79.6567 39.138 79.6567ZM49.0832 85.5167V79.4167H49.2232C49.5632 81.1767 50.8432 82.3167 53.1632 82.3167C56.1832 82.3167 57.8632 80.2967 57.8632 77.1167C57.8632 73.9367 56.1432 71.8967 53.0632 71.8967C50.7032 71.8967 49.4232 72.9167 49.0632 74.8367H48.8632V72.0967H46.0832V85.5167H49.0832ZM49.0832 77.2567V77.0967C49.0832 75.3167 50.0832 74.6567 52.0232 74.6567C53.9232 74.6567 54.8232 75.2767 54.8232 77.1167C54.8232 78.9367 53.9232 79.5767 52.0032 79.5767C50.1232 79.5767 49.0832 78.9767 49.0832 77.2567ZM62.1105 85.5167V79.4167H62.2505C62.5905 81.1767 63.8705 82.3167 66.1905 82.3167C69.2105 82.3167 70.8905 80.2967 70.8905 77.1167C70.8905 73.9367 69.1705 71.8967 66.0905 71.8967C63.7305 71.8967 62.4505 72.9167 62.0905 74.8367H61.8905V72.0967H59.1105V85.5167H62.1105ZM62.1105 77.2567V77.0967C62.1105 75.3167 63.1105 74.6567 65.0505 74.6567C66.9505 74.6567 67.8505 75.2767 67.8505 77.1167C67.8505 78.9367 66.9505 79.5767 65.0305 79.5767C63.1505 79.5767 62.1105 78.9767 62.1105 77.2567ZM77.4779 82.3167C80.8979 82.3167 83.1979 80.2767 83.1979 77.1167C83.1979 73.9167 80.8979 71.8967 77.4779 71.8967C74.0579 71.8967 71.7579 73.9167 71.7579 77.1167C71.7579 80.2767 74.0579 82.3167 77.4779 82.3167ZM77.4779 79.6567C75.4379 79.6567 74.7379 78.8767 74.7379 77.1167C74.7379 75.3567 75.4379 74.5367 77.4779 74.5367C79.4979 74.5367 80.2179 75.3567 80.2179 77.1167C80.2179 78.8767 79.4979 79.6567 77.4779 79.6567ZM87.423 82.1167V76.3167C87.423 75.0567 87.903 74.4367 89.243 74.4367C90.463 74.4367 90.903 74.9167 90.903 76.0167V77.0567H93.903V75.3967C93.903 73.4367 92.983 71.8967 90.743 71.8967C88.723 71.8967 87.663 73.1367 87.383 74.7567H87.203V72.0967H84.423V82.1167H87.423ZM102.049 82.1167V79.4167H100.249C99.1895 79.4167 98.8095 79.1567 98.8095 78.1567V74.5767H102.049V72.0967H98.8095V70.1567H95.8095V72.0967H94.2295V74.5767H95.8095V78.4967C95.8095 81.0167 97.2295 82.1167 99.5695 82.1167H102.049ZM107.313 82.3167C109.953 82.3167 111.173 80.7367 111.433 79.0567H111.593V82.1167H114.393V72.0967H111.393V77.1767C111.393 78.8767 110.693 79.6367 108.733 79.6367C106.833 79.6367 106.153 78.9567 106.153 77.3367V72.0967H103.153V78.3367C103.153 80.5767 104.493 82.3167 107.313 82.3167ZM118.927 82.1167V77.0567C118.927 75.3567 119.607 74.5967 121.507 74.5967C123.347 74.5967 124.007 75.2767 124.007 76.8767V82.1167H127.007V75.8767C127.007 73.6567 125.707 71.8967 122.967 71.8967C120.347 71.8967 119.147 73.4967 118.887 75.1767H118.707V72.0967H115.927V82.1167H118.927ZM131.525 71.0767V68.7167H128.525V71.0767H131.525ZM131.525 82.1167V72.0967H128.525V82.1167H131.525ZM140.155 82.1167V79.4167H138.355C137.295 79.4167 136.915 79.1567 136.915 78.1567V74.5767H140.155V72.0967H136.915V70.1567H133.915V72.0967H132.335V74.5767H133.915V78.4967C133.915 81.0167 135.335 82.1167 137.675 82.1167H140.155ZM144.279 71.0767V68.7167H141.279V71.0767H144.279ZM144.279 82.1167V72.0967H141.279V82.1167H144.279ZM151.169 82.3167C154.349 82.3167 156.469 80.7967 156.469 78.6167V78.3967H153.469V78.5967C153.469 79.4567 152.849 79.9167 151.069 79.9167C149.129 79.9167 148.409 79.2567 148.329 77.7167H156.489C156.529 77.3767 156.569 77.1167 156.569 76.7567C156.569 73.6167 154.389 71.8967 151.109 71.8967C147.809 71.8967 145.549 73.9167 145.549 77.1167C145.549 80.6767 147.829 82.3167 151.169 82.3167ZM151.049 74.2367C152.809 74.2367 153.609 74.8167 153.689 76.1367H148.369C148.509 74.8367 149.269 74.2367 151.049 74.2367ZM162.901 82.3167C166.001 82.3167 167.861 81.0767 167.861 79.1967C167.861 77.5367 166.861 76.6367 164.181 76.3367L162.041 76.0767C160.721 75.9167 160.441 75.6967 160.441 75.1767C160.441 74.5367 160.821 74.2767 162.321 74.2767C164.161 74.2767 164.561 74.6967 164.561 75.5167V75.6367H167.561V75.5767C167.561 73.1367 165.701 71.8967 162.421 71.8967C158.981 71.8967 157.481 73.2967 157.481 75.0567C157.481 76.7367 158.601 77.6367 160.601 77.8567L163.421 78.1967C164.601 78.3567 164.901 78.5167 164.901 79.0767C164.901 79.6767 164.521 79.9367 162.921 79.9367C161.221 79.9367 160.661 79.6967 160.661 78.7967V78.6167H157.661V78.6767C157.661 80.9967 159.521 82.3167 162.901 82.3167Z" fill="white"/>
    <defs>
    <filter id="filter0_b_0_920" x="-237.813" y="-238.092" width="776.863" height="672.463" filterUnits="userSpaceOnUse" color-interpolation-filters="sRGB">
    <feFlood flood-opacity="0" result="BackgroundImageFix"/>
    <feGaussianBlur in="BackgroundImageFix" stdDeviation="119.128"/>
    <feComposite in2="SourceAlpha" operator="in" result="effect1_backgroundBlur_0_920"/>
    <feBlend mode="normal" in="SourceGraphic" in2="effect1_backgroundBlur_0_920" result="shape"/>
    </filter>
    </defs>
    </svg>
    