<svg width="30" height="31" viewBox="0 0 30 31" fill="none" xmlns="http://www.w3.org/2000/svg">
    <g clip-path="url(#clip0_0_1969)">
    <path d="M29.5 15.5001C29.5 23.5083 23.0081 30.0001 15 30.0001C6.99187 30.0001 0.5 23.5083 0.5 15.5001C0.5 7.49199 6.99187 1.00012 15 1.00012C23.0081 1.00012 29.5 7.49199 29.5 15.5001Z" stroke="white"/>
    <path d="M23.9629 16.708V22.8921H20.3775V17.1224C20.3775 15.6737 19.8599 14.6844 18.5617 14.6844C17.571 14.6844 16.9825 15.3504 16.7226 15.9954C16.6282 16.2259 16.6039 16.5459 16.6039 16.8692V22.8919H13.0182C13.0182 22.8919 13.0663 13.1199 13.0182 12.1083H16.6041V13.6365C16.5969 13.6485 16.5867 13.6603 16.5803 13.6717H16.6041V13.6365C17.0806 12.9033 17.9304 11.8551 19.8355 11.8551C22.1944 11.8551 23.9629 13.3963 23.9629 16.708ZM9.26723 6.91028C8.04072 6.91028 7.23828 7.71539 7.23828 8.77318C7.23828 9.80851 8.01745 10.6369 9.22017 10.6369H9.24343C10.494 10.6369 11.2716 9.80851 11.2716 8.77318C11.2478 7.71539 10.494 6.91028 9.26723 6.91028ZM7.45139 22.8921H11.0357V12.1083H7.45139V22.8921Z" fill="#F1F2F2"/>
    </g>
    <defs>
    <clipPath id="clip0_0_1969">
    <rect width="30" height="30" fill="white" transform="translate(0 0.500122)"/>
    </clipPath>
    </defs>
    </svg>
    