<svg width="59" height="60" viewBox="0 0 59 60" fill="none" xmlns="http://www.w3.org/2000/svg">
    <circle cx="29.5" cy="29.6167" r="29.5" fill="#EAEAEA"/>
    <path d="M27.91 37.7867C27.72 37.7867 27.53 37.7167 27.38 37.5667C27.09 37.2767 27.09 36.7967 27.38 36.5067L33.9 29.9867C34.38 29.5067 34.38 28.7267 33.9 28.2467L27.38 21.7267C27.09 21.4367 27.09 20.9567 27.38 20.6667C27.67 20.3767 28.15 20.3767 28.44 20.6667L34.96 27.1867C35.47 27.6967 35.76 28.3867 35.76 29.1167C35.76 29.8467 35.48 30.5367 34.96 31.0467L28.44 37.5667C28.29 37.7067 28.1 37.7867 27.91 37.7867Z" fill="#101828"/>
    </svg>
    