<svg width="30" height="31" viewBox="0 0 30 31" fill="none" xmlns="http://www.w3.org/2000/svg">
    <g clip-path="url(#clip0_0_1964)">
    <path d="M29.5 15.5001C29.5 23.5083 23.0081 30.0001 15 30.0001C6.99187 30.0001 0.5 23.5083 0.5 15.5001C0.5 7.49199 6.99187 1.00012 15 1.00012C23.0081 1.00012 29.5 7.49199 29.5 15.5001Z" stroke="white"/>
    <path d="M24.187 11.2791C23.5442 11.5642 22.8527 11.7569 22.1275 11.843C22.8679 11.3994 23.4361 10.6976 23.7043 9.85982C23.0115 10.2708 22.2438 10.5689 21.4275 10.7296C20.7735 10.0331 19.8416 9.59778 18.8098 9.59778C16.83 9.59778 15.2243 11.2035 15.2243 13.1832C15.2243 13.4642 15.2562 13.7378 15.3177 14.0003C12.3379 13.8509 9.6958 12.4235 7.92729 10.2537C7.61872 10.7831 7.44171 11.3994 7.44171 12.0564C7.44171 13.3 8.07516 14.3979 9.03669 15.0408C8.44923 15.0223 7.89601 14.8611 7.41283 14.5918C7.41257 14.607 7.41257 14.6223 7.41257 14.6373C7.41257 16.3745 8.64897 17.8235 10.2889 18.1526C9.98833 18.235 9.67094 18.2786 9.34445 18.2786C9.11289 18.2786 8.88856 18.2564 8.66983 18.2147C9.126 19.6388 10.4498 20.6754 12.0191 20.7046C10.7918 21.6664 9.24605 22.2394 7.56578 22.2394C7.277 22.2394 6.99089 22.2226 6.71094 22.1891C8.29682 23.2068 10.1819 23.8002 12.2066 23.8002C18.8015 23.8002 22.408 18.3369 22.408 13.5985C22.408 13.4431 22.4045 13.2883 22.3976 13.1348C23.0987 12.6294 23.7065 11.9981 24.187 11.2791Z" fill="#F1F2F2"/>
    </g>
    <defs>
    <clipPath id="clip0_0_1964">
    <rect width="30" height="30" fill="white" transform="translate(0 0.500122)"/>
    </clipPath>
    </defs>
    </svg>
    